<?xml version="1.0" standalone="no"?>
<!DOCTYPE svg PUBLIC "-//W3C//DTD SVG 20010904//EN"
 "http://www.w3.org/TR/2001/REC-SVG-20010904/DTD/svg10.dtd">
<svg version="1.0" xmlns="http://www.w3.org/2000/svg"
 width="113.000000pt" height="300.000000pt" viewBox="0 0 113.000000 300.000000"
 preserveAspectRatio="xMidYMid meet">

<g transform="translate(0.000000,300.000000) scale(0.100000,-0.100000)"
fill="#000000" stroke="none">
<path d="M550 2828 c0 -29 4 -70 9 -90 8 -32 6 -38 -10 -43 -11 -4 -19 -13
-19 -21 0 -15 -12 -19 -23 -7 -4 3 -2 12 4 19 7 8 7 14 -1 19 -17 10 -11 44
10 57 14 9 20 24 20 48 l0 35 -25 -30 c-13 -16 -22 -36 -20 -43 3 -9 -1 -11
-14 -7 -16 5 -25 -6 -50 -56 -36 -73 -37 -89 -10 -149 22 -46 32 -101 21 -110
-10 -8 -32 -43 -38 -63 -4 -9 -18 -20 -33 -23 -14 -3 -33 -9 -41 -14 -8 -5
-36 -22 -63 -36 -36 -21 -53 -39 -71 -78 -28 -58 -45 -143 -27 -132 6 4 11 14
11 23 0 10 6 14 20 10 13 -3 18 -1 13 6 -10 16 -12 67 -2 61 5 -3 9 3 9 13 0
10 10 27 21 37 21 17 22 17 52 -4 16 -13 27 -18 23 -11 -4 6 -1 11 8 11 8 0
16 -4 18 -9 2 -4 14 -12 28 -16 l25 -7 -24 25 c-13 15 -28 24 -34 20 -6 -3 -7
-1 -3 5 4 7 0 12 -11 13 -10 0 -13 3 -6 5 7 3 22 0 35 -7 19 -9 21 -9 11 2
-18 18 -16 26 5 25 10 0 38 -20 62 -43 30 -28 56 -43 82 -47 24 -4 41 -13 45
-24 4 -9 11 -20 17 -24 7 -5 4 -8 -6 -8 -10 0 -18 -4 -18 -10 0 -5 5 -10 11
-10 5 0 7 -6 3 -12 -6 -9 -3 -9 9 0 17 14 37 9 37 -9 0 -29 -57 -49 -72 -25
-4 6 -8 24 -8 39 0 16 -4 26 -10 22 -5 -3 -16 9 -23 27 -9 21 -16 28 -21 20
-4 -7 -3 -12 2 -12 6 0 8 -9 5 -20 -7 -25 -15 -25 -31 0 -7 12 -17 18 -22 15
-6 -3 -10 -1 -10 4 0 6 -4 11 -10 11 -17 0 -11 -18 9 -25 10 -3 21 -15 24 -25
3 -13 1 -18 -6 -13 -17 10 -47 11 -41 1 3 -4 12 -8 20 -8 8 0 14 -8 14 -17 0
-13 -3 -14 -11 -6 -6 6 -18 9 -25 6 -8 -3 -14 1 -14 8 0 8 -9 3 -19 -10 -10
-14 -17 -31 -14 -38 4 -9 0 -11 -11 -7 -11 4 -16 1 -16 -10 0 -11 9 -16 31
-16 23 0 41 10 67 36 19 19 36 33 38 31 11 -10 -28 -74 -50 -85 -21 -9 -37
-32 -22 -32 19 0 79 35 96 57 19 24 27 27 81 25 45 -1 58 2 53 11 -5 6 1 5 11
-3 14 -11 19 -12 22 -2 6 17 23 15 23 -2 0 -8 21 -26 48 -42 60 -34 59 -33 42
-44 -10 -7 -11 -10 -2 -10 6 0 12 -7 12 -15 0 -9 -6 -12 -15 -9 -11 5 -15 -1
-15 -20 0 -14 5 -26 12 -26 6 0 4 -8 -6 -19 -13 -14 -14 -20 -5 -23 22 -7 1
-41 -21 -35 -11 3 -18 1 -15 -4 3 -4 -3 -17 -14 -28 -13 -13 -16 -23 -10 -27
6 -3 8 -12 5 -20 -3 -8 1 -14 11 -14 9 0 13 -3 9 -7 -4 -4 -15 -8 -24 -8 -9 0
-18 -6 -18 -12 -3 -26 -5 -28 -15 -10 -5 9 -17 17 -24 17 -8 0 -15 9 -15 21 0
11 -5 17 -10 14 -7 -4 -10 8 -8 33 2 22 7 38 12 35 5 -3 6 0 4 8 -3 8 -11 13
-17 12 -6 -2 -11 8 -11 22 0 16 6 25 15 25 18 0 19 20 4 54 -7 14 -17 22 -25
19 -8 -3 -14 0 -14 7 0 9 10 11 30 6 28 -5 30 -4 20 15 -7 13 -17 18 -29 14
-10 -3 -28 3 -41 15 -23 20 -25 20 -31 3 -15 -36 -10 -45 16 -39 16 4 25 2 25
-6 0 -20 -31 -47 -48 -41 -15 4 -15 3 -2 -6 8 -6 10 -11 4 -11 -6 0 -11 -7
-11 -15 0 -8 4 -15 9 -15 5 0 6 -5 2 -12 -4 -7 -3 -8 4 -4 7 4 12 16 12 27 0
10 5 19 11 19 5 0 8 4 5 9 -3 5 1 11 9 14 9 4 12 1 9 -7 -4 -10 3 -12 23 -10
15 2 20 1 10 -2 -9 -3 -14 -10 -11 -16 4 -6 1 -9 -7 -6 -20 7 -54 -33 -37 -43
8 -5 16 -2 20 9 6 15 7 14 7 -3 1 -11 -6 -33 -14 -48 -8 -15 -10 -25 -5 -22 6
4 10 -1 10 -9 0 -9 -4 -16 -10 -16 -5 0 -10 -7 -10 -15 0 -8 5 -15 11 -15 6 0
4 -7 -5 -15 -18 -19 -32 -20 -17 -1 9 11 7 15 -10 19 -15 4 -19 2 -15 -9 7
-19 -34 -19 -59 0 -16 12 -17 16 -6 30 8 9 22 14 35 11 14 -4 25 1 34 15 7 12
8 20 2 20 -5 0 -10 -5 -10 -10 0 -6 -8 -5 -19 2 -11 7 -18 16 -15 20 3 4 -2 5
-11 2 -9 -4 -14 -9 -11 -12 3 -2 1 -14 -5 -24 -8 -15 -14 -17 -22 -9 -15 15
-30 14 -21 -1 4 -7 3 -9 -1 -5 -15 14 -14 36 2 30 9 -4 5 8 -11 31 -32 47 -31
102 1 99 11 -1 27 5 35 15 11 15 11 15 -2 5 -17 -13 -46 -2 -37 14 9 14 -5 29
-38 40 -19 6 -30 16 -30 29 0 10 -8 20 -18 22 -9 2 -17 8 -17 13 0 6 4 8 8 5
9 -6 8 19 -2 47 -14 38 -14 45 -3 56 8 8 3 7 -14 -1 -20 -9 -24 -17 -21 -44 2
-17 -1 -35 -7 -38 -6 -4 -9 -1 -8 6 2 7 2 10 0 6 -3 -5 -11 -8 -20 -8 -13 0
-12 -2 1 -15 14 -15 12 -50 -3 -41 -4 3 -7 -3 -8 -12 -4 -85 -8 -98 -47 -133
-22 -21 -36 -41 -32 -48 11 -18 31 -13 54 14 24 28 57 33 66 10 10 -26 21 -16
44 36 23 55 42 58 42 6 0 -18 7 -60 15 -92 18 -67 14 -94 -19 -145 -12 -19
-31 -56 -42 -82 -22 -56 -34 -61 -35 -15 -2 49 -13 82 -29 82 -8 0 -27 13 -42
29 -28 29 -52 30 -28 1 10 -13 9 -15 -9 -15 -12 0 -21 -6 -21 -15 0 -8 4 -15
9 -15 5 0 8 -18 7 -39 0 -22 -4 -37 -7 -35 -12 7 -17 -61 -5 -69 6 -5 -8 -7
-31 -5 -24 2 -43 2 -43 1 0 -2 18 -23 40 -47 22 -24 47 -60 55 -80 13 -31 18
-36 30 -26 17 14 17 14 20 -18 2 -17 -1 -20 -11 -11 -11 9 -12 -1 -7 -58 7
-80 37 -135 81 -151 30 -10 30 -10 37 -114 7 -100 20 -213 29 -253 2 -11 5
-22 5 -25 1 -3 13 -7 28 -8 36 -3 40 -10 18 -26 -17 -12 -21 -12 -31 2 -27 36
-29 -97 -4 -250 5 -35 8 -79 6 -98 -7 -75 -40 -197 -63 -231 -25 -37 -22 -75
4 -65 8 3 11 1 8 -5 -5 -7 11 -9 46 -7 40 2 55 8 63 23 6 11 19 33 30 48 16
25 18 42 14 138 -4 83 -1 132 13 202 10 50 18 131 19 179 0 48 4 98 10 112 5
14 16 86 24 160 8 74 19 143 24 153 6 10 17 53 27 95 16 72 35 96 35 44 0 -12
9 -58 21 -102 17 -67 21 -119 26 -344 2 -146 4 -329 3 -408 l-2 -143 43 -39
c46 -41 104 -58 154 -46 34 9 31 24 -11 71 -80 89 -94 169 -60 342 8 46 18
120 22 165 4 51 13 95 24 113 11 19 20 62 24 115 18 229 28 318 40 345 7 17
25 55 40 85 14 30 26 67 26 80 0 28 16 54 60 99 26 26 30 37 30 85 0 49 4 60
33 93 19 21 36 46 40 55 4 10 -7 47 -25 85 -36 78 -36 78 -44 71 -3 -4 1 -19
9 -35 8 -15 18 -39 22 -52 6 -20 4 -23 -9 -18 -10 4 -16 1 -16 -8 0 -8 9 -15
19 -15 18 0 18 -2 5 -29 -8 -16 -21 -35 -30 -42 -9 -7 -11 -15 -5 -18 5 -4 6
-12 2 -19 -9 -16 -42 -5 -35 11 2 7 -11 21 -31 31 -19 11 -35 26 -35 34 0 12
4 12 20 -3 20 -18 20 -18 14 14 -6 26 -4 30 10 25 23 -9 20 19 -4 34 -17 10
-19 16 -9 33 9 19 9 19 -9 10 -17 -9 -19 -8 -15 8 2 10 17 25 31 32 30 15 57
38 48 40 -3 1 -11 2 -16 3 -11 1 -30 25 -30 39 0 4 11 7 24 7 16 0 27 -7 31
-21 16 -50 14 -4 -4 82 -22 107 -56 205 -80 233 -16 18 -150 86 -170 86 -6 0
-11 -7 -11 -16 0 -9 -7 -14 -17 -12 -13 3 -17 12 -15 31 2 21 -5 34 -28 53
-35 30 -37 42 -10 112 38 100 22 164 -65 247 -32 31 -55 62 -55 74 0 12 -4 21
-10 21 -5 0 -10 -24 -10 -52z m-30 -48 c0 -5 -4 -10 -10 -10 -5 0 -10 5 -10
10 0 6 5 10 10 10 6 0 10 -4 10 -10z m20 -160 c0 -5 -10 -10 -21 -10 -17 0
-19 -3 -10 -14 9 -10 8 -15 -2 -19 -7 -2 -18 6 -24 19 -9 20 -8 23 11 27 38 8
46 7 46 -3z m6 -155 c4 -8 3 -23 -1 -32 -6 -16 -8 -16 -17 3 -6 12 -20 27 -32
32 -19 10 -18 11 12 11 20 1 35 -5 38 -14z m-26 -55 c12 -8 11 -10 -7 -10 -12
0 -25 5 -28 10 -8 13 15 13 35 0z m4 -86 c10 -1 24 -8 30 -15 17 -18 -75 -2
-96 18 -24 21 -23 36 2 28 13 -4 20 -2 20 7 0 7 6 2 13 -11 6 -13 20 -25 31
-27z m106 -3 c0 -11 -31 -24 -39 -16 -3 3 1 10 9 15 19 12 30 12 30 1z m106
-61 c0 -12 -6 -19 -16 -17 -8 1 -15 -5 -14 -14 1 -15 -6 -16 -50 -10 -13 1 54
61 69 61 6 0 11 -9 11 -20z m153 -15 c27 5 44 -23 25 -43 -13 -12 -17 -11 -34
8 l-20 23 0 -22 c0 -14 4 -20 12 -15 8 5 9 2 5 -9 -3 -9 -2 -19 3 -22 6 -4 10
-14 10 -23 0 -14 -2 -15 -10 -2 -5 8 -12 11 -17 7 -4 -4 -2 -17 5 -27 10 -16
9 -18 -3 -14 -8 4 -15 2 -15 -3 0 -13 -60 -7 -74 7 -8 9 -6 11 11 5 18 -5 22
-3 17 9 -3 8 -11 13 -19 10 -7 -3 -15 3 -19 13 -6 15 -9 15 -17 3 -8 -11 -9
-9 -4 8 6 22 5 23 -17 17 -32 -10 -32 -11 -21 -47 6 -22 15 -33 26 -32 9 1 17
-4 17 -12 0 -14 27 -18 78 -14 36 3 26 -25 -15 -39 -26 -10 -38 -10 -41 -3 -2
6 -9 9 -16 6 -17 -6 -78 66 -71 84 3 7 5 24 5 37 0 18 12 31 45 50 24 15 49
24 55 20 21 -13 49 -13 54 1 3 8 1 14 -4 14 -6 0 -10 5 -10 10 0 7 6 7 19 1
10 -6 28 -9 40 -6z m-276 -52 c-5 -12 -3 -14 7 -8 9 5 11 4 6 -3 -10 -16 -37
-15 -33 1 2 10 16 26 24 27 1 0 -1 -7 -4 -17z m313 -63 c0 -27 -2 -50 -4 -50
-2 0 -10 6 -17 14 -11 10 -12 22 -4 50 14 51 26 45 25 -14z m24 10 c0 -5 -5
-10 -11 -10 -5 0 -7 5 -4 10 3 6 8 10 11 10 2 0 4 -4 4 -10z m-308 -42 c-7 -7
-12 -8 -12 -2 0 14 12 26 19 19 2 -3 -1 -11 -7 -17z m341 -14 c-2 -7 2 -26 11
-42 16 -32 13 -42 -16 -42 -12 0 -18 7 -18 24 0 14 -5 28 -10 31 -6 4 -7 13
-1 23 4 9 6 23 4 30 -4 11 -1 11 15 1 11 -7 18 -18 15 -25z m-88 -4 c3 -5 1
-10 -4 -10 -6 0 -11 5 -11 10 0 6 2 10 4 10 3 0 8 -4 11 -10z m-585 -100 c0
-5 -4 -10 -10 -10 -5 0 -10 5 -10 10 0 6 5 10 10 10 6 0 10 -4 10 -10z m567
-56 c23 -57 25 -105 7 -189 -2 -11 -1 -14 2 -7 5 10 34 18 34 9 0 -16 -34 -67
-45 -67 -18 0 -73 65 -81 95 -3 13 -1 39 4 57 6 18 13 51 16 73 18 115 28 120
63 29z m-517 46 c0 -5 -5 -10 -11 -10 -5 0 -7 5 -4 10 3 6 8 10 11 10 2 0 4
-4 4 -10z m207 -192 c-3 -8 -6 -5 -6 6 -1 11 2 17 5 13 3 -3 4 -12 1 -19z
m-153 -130 c9 -13 14 -17 11 -10 -9 19 0 15 76 -28 71 -40 103 -48 114 -30 3
6 1 10 -6 10 -19 0 -5 10 21 15 18 4 20 2 9 -11 -10 -12 -9 -13 7 -8 10 4 28
15 39 25 11 10 27 19 35 21 8 2 21 9 28 16 8 7 19 11 26 9 13 -5 9 -40 -5 -45
-5 -2 -7 -19 -3 -38 5 -26 2 -35 -11 -40 -13 -5 -14 -9 -4 -15 10 -6 10 -11 0
-23 -14 -16 -36 -12 -26 4 5 8 -8 43 -20 58 -1 1 -14 -2 -29 -7 -26 -11 -37
-46 -15 -53 8 -3 9 -15 4 -37 l-7 -33 -24 23 c-18 17 -21 25 -12 30 9 6 8 10
-6 15 -13 5 -15 9 -5 15 10 6 8 13 -10 28 -12 11 -28 18 -36 15 -7 -3 -15 2
-18 10 -4 9 -12 16 -18 16 -8 0 -7 -5 2 -16 12 -15 11 -16 -8 -10 -16 5 -25 1
-37 -16 -9 -12 -16 -17 -16 -10 0 6 -4 12 -10 12 -5 0 -10 -6 -10 -14 0 -8 -8
-21 -17 -28 -10 -7 -20 -22 -21 -33 -2 -11 -7 -24 -12 -29 -12 -12 -32 3 -23
17 4 7 6 22 4 35 -1 13 4 25 13 28 9 3 13 10 11 15 -3 5 2 20 10 33 16 24 16
25 -9 32 -34 8 -40 3 -56 -56 -14 -50 -25 -68 -37 -56 -3 3 0 13 7 21 10 12
10 19 2 27 -17 17 -15 63 3 78 8 7 15 19 15 26 0 8 7 14 15 14 8 0 15 -5 15
-11 0 -5 5 -7 11 -4 6 4 8 13 5 21 -8 22 10 16 28 -8z m561 12 c3 -5 2 -10 -4
-10 -5 0 -13 5 -16 10 -3 6 -2 10 4 10 5 0 13 -4 16 -10z m40 -20 c3 -5 1 -10
-4 -10 -6 0 -11 5 -11 10 0 6 2 10 4 10 3 0 8 -4 11 -10z m-47 -90 c-1 -24 -6
-40 -13 -40 -7 0 -18 -15 -26 -32 -7 -18 -18 -36 -23 -40 -8 -5 -8 -8 0 -8 18
0 11 -34 -13 -60 l-23 -24 0 22 c0 20 -2 21 -22 11 -21 -11 -22 -11 -9 4 7 10
10 17 6 17 -4 0 7 10 26 23 19 12 34 29 34 37 0 8 5 19 10 23 6 6 6 10 -2 14
-20 7 -15 23 5 16 14 -5 15 -3 5 7 -10 11 -18 11 -38 2 -14 -6 -25 -8 -25 -3
0 5 16 15 35 21 19 6 37 20 40 31 12 37 35 22 33 -21z m-708 -45 c0 -27 -15
-41 -25 -25 -10 16 4 62 15 55 6 -3 10 -17 10 -30z m0 -85 c0 -16 -4 -30 -10
-30 -5 0 -10 14 -10 30 0 17 5 30 10 30 6 0 10 -13 10 -30z m69 -16 c-15 -19
-28 -9 -22 16 4 16 8 18 19 9 11 -9 11 -15 3 -25z m55 20 c14 -5 14 -9 4 -22
-11 -13 -11 -14 1 -7 10 5 12 4 7 -4 -5 -7 -16 -9 -28 -5 -17 5 -20 3 -15 -10
4 -9 2 -16 -2 -16 -18 0 -20 31 -4 50 20 23 17 22 37 14z m76 -25 c0 -4 -9 -9
-20 -12 -11 -3 -18 -1 -15 3 3 5 -1 10 -7 13 -7 2 -1 4 14 3 16 0 28 -4 28 -7z
m207 -31 c-3 -8 -6 -5 -6 6 -1 11 2 17 5 13 3 -3 4 -12 1 -19z m-222 -8 c-3
-5 -11 -10 -16 -10 -6 0 -7 5 -4 10 3 6 11 10 16 10 6 0 7 -4 4 -10z m-36 -31
c13 -8 10 -9 -11 -6 -25 4 -28 1 -29 -27 -1 -17 -3 -24 -6 -15 -2 10 -11 15
-22 12 -22 -6 -45 21 -37 43 5 13 15 15 48 10 22 -4 48 -11 57 -17z m267 1 c8
0 14 -4 14 -10 0 -11 -11 -13 -34 -4 -9 3 -12 12 -9 22 4 10 8 12 11 4 2 -7
10 -12 18 -12z m-420 -102 c1 -39 -2 -65 -6 -57 -9 16 -13 48 -11 103 2 66 16
29 17 -46z m112 31 c15 0 21 -3 14 -6 -6 -2 -10 -9 -6 -14 3 -5 -2 -9 -10 -9
-9 0 -16 -4 -16 -10 0 -5 -5 -10 -11 -10 -6 0 -8 7 -5 16 5 14 4 15 -9 4 -9
-7 -15 -8 -15 -2 0 6 -3 17 -6 25 -6 16 28 30 34 15 2 -4 16 -8 30 -9z m122 1
c0 -5 -8 -10 -17 -10 -15 0 -16 2 -3 10 19 12 20 12 20 0z m267 -26 c-3 -3
-12 -4 -19 -1 -8 3 -5 6 6 6 11 1 17 -2 13 -5z m-279 -58 c-10 -7 -14 -17 -10
-21 4 -5 1 -5 -6 -1 -10 6 -10 11 -1 22 6 8 17 14 23 14 6 0 3 -7 -6 -14z
m-125 -2 c10 -10 -12 -44 -28 -44 -9 0 -15 10 -15 25 0 18 5 25 18 25 10 0 22
-3 25 -6z m411 -19 c-4 -8 -9 -15 -13 -15 -4 0 -8 7 -8 15 0 8 6 15 13 15 8 0
11 -6 8 -15z m-284 -45 c0 -5 -4 -10 -10 -10 -5 0 -10 5 -10 10 0 6 5 10 10
10 6 0 10 -4 10 -10z m-132 -11 c-10 -5 -18 -17 -18 -25 0 -8 -5 -12 -10 -9
-6 4 -8 11 -5 16 4 5 1 9 -4 9 -6 0 -11 5 -11 10 0 6 15 10 33 10 26 -1 29 -2
15 -11z m417 1 c-3 -5 0 -10 7 -11 10 0 10 -2 1 -6 -18 -7 -16 -23 3 -23 14 0
14 -3 4 -15 -10 -12 -9 -15 6 -16 17 -1 17 -2 2 -6 -10 -2 -18 -8 -18 -13 0
-5 8 -6 18 -3 15 6 15 5 3 -11 -14 -16 -16 -16 -28 9 -8 14 -18 23 -23 20 -6
-3 -7 1 -4 9 3 9 9 16 13 16 4 0 7 9 7 20 0 14 -5 19 -16 15 -9 -3 -8 1 4 10
23 17 30 19 21 5z m52 4 c-3 -3 -12 -4 -19 -1 -8 3 -5 6 6 6 11 1 17 -2 13 -5z
m-103 -29 c-6 -16 -24 -21 -24 -7 0 11 11 22 21 22 5 0 6 -7 3 -15z m-359 -35
c12 -20 -5 -48 -25 -43 -23 6 -26 19 -7 26 6 3 3 6 -8 6 -17 1 -17 3 -5 11 19
13 37 13 45 0z m103 -15 c-28 -14 -35 -11 -19 9 7 8 19 12 27 9 12 -4 10 -8
-8 -18z m292 -25 c0 -5 -2 -10 -4 -10 -3 0 -8 5 -11 10 -3 6 -1 10 4 10 6 0
11 -4 11 -10z m-420 -20 c0 -5 -4 -10 -10 -10 -5 0 -10 5 -10 10 0 6 5 10 10
10 6 0 10 -4 10 -10z m140 -18 c0 -4 -9 -13 -20 -20 -16 -10 -20 -10 -20 1 0
8 3 17 7 20 9 9 33 9 33 -1z m-95 -12 c4 -6 3 -10 -2 -9 -20 3 -32 -2 -29 -13
1 -7 1 -10 -1 -5 -3 4 -11 7 -19 7 -8 0 -14 7 -14 15 0 17 55 21 65 5z m425 6
c0 -9 -30 -14 -35 -6 -4 6 3 10 14 10 12 0 21 -2 21 -4z m-357 -145 c-26 -23
-48 -20 -46 6 3 29 -23 20 -31 -10 -6 -22 -7 -22 -21 -3 -8 11 -15 28 -15 37
0 10 -5 19 -12 21 -24 8 1 38 32 38 30 0 43 -24 18 -32 -6 -2 -9 -9 -5 -15 8
-13 58 -4 56 11 -3 25 2 35 19 38 26 5 30 -68 5 -91z m358 46 c-1 -12 -15 -9
-19 4 -3 6 1 10 8 8 6 -3 11 -8 11 -12z m-356 -157 c-3 -5 -16 -10 -28 -10
-18 0 -19 2 -7 10 20 13 43 13 35 0z m295 -30 c0 -5 -5 -10 -11 -10 -5 0 -7 5
-4 10 3 6 8 10 11 10 2 0 4 -4 4 -10z m-380 -140 c0 -5 -2 -10 -4 -10 -3 0 -8
5 -11 10 -3 6 -1 10 4 10 6 0 11 -4 11 -10z m10 -192 c0 -18 -2 -20 -9 -8 -6
8 -7 18 -5 22 9 14 14 9 14 -14z"/>
<path d="M763 2213 c-7 -2 -13 -9 -13 -15 0 -7 5 -7 13 1 8 6 17 8 20 4 4 -3
7 -1 7 5 0 13 -7 14 -27 5z"/>
<path d="M787 2177 c-3 -8 3 -14 14 -14 11 -1 19 5 19 13 0 18 -26 19 -33 1z"/>
<path d="M268 2233 c7 -3 16 -2 19 1 4 3 -2 6 -13 5 -11 0 -14 -3 -6 -6z"/>
<path d="M297 2194 c6 -16 29 -19 38 -4 3 6 3 10 -2 11 -4 0 -16 2 -25 4 -11
2 -15 -2 -11 -11z"/>
<path d="M320 2163 c0 -13 14 -28 30 -31 11 -3 10 2 -4 17 -20 22 -26 25 -26
14z"/>
<path d="M145 2080 c-4 -6 -2 -17 4 -23 15 -15 25 -2 13 19 -7 12 -11 13 -17
4z"/>
<path d="M640 2050 c0 -19 -3 -25 -17 -36 -13 -9 -13 -12 1 -23 18 -15 18 -15
20 19 1 14 5 31 9 38 5 7 4 12 -2 12 -6 0 -11 -4 -11 -10z"/>
<path d="M126 2004 c-3 -9 -6 -25 -6 -37 1 -21 1 -21 15 3 8 14 14 31 15 38 0
17 -17 15 -24 -4z"/>
<path d="M638 1915 c5 -29 11 -28 17 4 2 13 -1 21 -9 21 -9 0 -12 -9 -8 -25z"/>
<path d="M433 1901 c-1 -13 3 -18 12 -15 22 9 27 34 7 34 -10 0 -18 -8 -19
-19z"/>
<path d="M693 1898 c1 -17 -3 -22 -15 -20 -24 4 -23 -5 3 -19 15 -8 19 -8 15
0 -4 6 -1 11 6 11 25 0 38 21 23 36 -20 21 -35 17 -32 -8z"/>
<path d="M377 1880 c-3 -10 1 -24 8 -30 9 -8 12 -3 11 20 -1 34 -11 40 -19 10z"/>
<path d="M610 1875 c-8 -9 -8 -15 -2 -15 12 0 26 19 19 26 -2 2 -10 -2 -17
-11z"/>
<path d="M170 1818 c-16 -22 -30 -44 -30 -48 0 -17 15 -18 34 -3 18 16 19 16
8 1 -19 -24 0 -55 37 -60 18 -3 29 0 28 6 -1 6 7 10 18 9 19 -2 21 4 21 52 0
35 -4 55 -12 55 -6 0 -17 7 -24 15 -21 26 -49 17 -80 -27z m30 -78 c0 -5 -2
-10 -4 -10 -3 0 -8 5 -11 10 -3 6 -1 10 4 10 6 0 11 -4 11 -10z"/>
<path d="M965 1830 c3 -5 8 -10 11 -10 2 0 4 5 4 10 0 6 -5 10 -11 10 -5 0 -7
-4 -4 -10z"/>
<path d="M25 1790 c-16 -16 -25 -33 -22 -37 4 -3 7 -3 7 1 0 4 7 1 15 -8 8 -8
15 -19 15 -25 0 -6 5 -11 10 -11 13 0 13 3 -2 35 -8 19 -8 31 0 50 15 32 12
31 -23 -5z"/>
<path d="M981 1771 c-10 -6 -10 -10 -1 -16 13 -8 24 -1 19 14 -3 6 -10 7 -18
2z"/>
<path d="M630 1770 c-13 -35 11 -63 34 -40 7 7 5 10 -6 10 -9 0 -19 8 -21 18
-3 9 -6 15 -7 12z"/>
<path d="M998 1733 c7 -3 16 -2 19 1 4 3 -2 6 -13 5 -11 0 -14 -3 -6 -6z"/>
<path d="M66 1711 c-4 -6 0 -18 8 -27 12 -12 16 -12 16 -2 0 22 -17 42 -24 29z"/>
</g>
</svg>
