<?xml version="1.0" standalone="no"?>
<!DOCTYPE svg PUBLIC "-//W3C//DTD SVG 20010904//EN"
 "http://www.w3.org/TR/2001/REC-SVG-20010904/DTD/svg10.dtd">
<svg version="1.0" xmlns="http://www.w3.org/2000/svg"
 width="300.000000pt" height="123.000000pt" viewBox="0 0 300.000000 123.000000"
 preserveAspectRatio="xMidYMid meet">

<g transform="translate(0.000000,123.000000) scale(0.100000,-0.100000)"
fill="#000000" stroke="none">
<path d="M1235 1108 c-22 -18 -41 -32 -42 -30 -8 7 -43 1 -43 -8 0 -19 30 -23
49 -6 11 10 35 16 64 16 l47 0 2 -167 2 -168 6 180 c4 99 10 188 14 198 7 14
3 17 -26 17 -23 0 -46 -10 -73 -32z"/>
<path d="M401 862 c1 -138 -2 -255 -5 -261 -4 -6 -31 -11 -59 -12 -48 -1 -50
-2 -21 -10 27 -8 31 -13 27 -36 -3 -16 -8 -37 -13 -48 -12 -28 -21 -74 -23
-113 -1 -18 -6 -36 -12 -40 -13 -9 -18 -35 -5 -27 5 3 10 2 10 -4 0 -5 7 -11
15 -13 10 -2 12 -7 5 -18 -8 -13 -11 -12 -23 3 -14 20 -37 17 -145 -19 -23 -8
-49 -14 -56 -14 -15 0 -30 56 -20 72 11 18 10 98 -1 87 -13 -13 -16 -172 -4
-180 6 -3 36 3 67 13 112 38 142 46 142 37 0 -5 -16 -19 -35 -31 -19 -13 -35
-27 -35 -31 0 -12 43 13 62 37 22 27 35 14 14 -16 -9 -12 -16 -26 -16 -31 0
-16 21 5 33 31 11 26 11 26 17 -18 l7 -45 2 45 3 45 19 -40 20 -40 -6 39 -7
40 31 -33 c48 -51 73 -90 66 -101 -4 -6 9 -10 32 -10 44 1 80 26 85 61 2 16
10 25 26 27 38 6 54 82 17 82 -8 0 -17 4 -20 10 -4 7 2 7 18 1 21 -8 26 -6 30
10 7 27 -13 34 -101 38 -18 0 -31 5 -27 11 3 5 12 7 19 4 8 -3 17 -1 21 5 4 7
12 8 24 1 10 -5 21 -7 24 -4 9 10 58 -28 53 -41 -3 -8 10 -15 37 -18 27 -4 49
-14 60 -29 19 -22 18 -23 -10 -45 l-28 -24 -27 33 c-32 37 -38 26 -8 -12 11
-14 20 -28 20 -32 0 -10 -59 -40 -68 -34 -4 3 -14 1 -22 -5 -11 -6 -5 -9 20
-9 46 1 137 63 163 113 l19 37 74 0 c67 0 74 -2 74 -20 0 -11 5 -20 10 -20 6
0 10 8 10 18 0 16 7 18 61 15 34 -2 70 -8 80 -14 13 -7 19 -6 19 1 0 6 5 8 10
5 6 -4 4 -12 -6 -22 -8 -9 -12 -19 -7 -22 17 -13 11 -28 -10 -24 -12 2 -51 0
-85 -5 -59 -8 -64 -7 -71 11 -8 20 -8 20 -13 0 -9 -36 5 -46 48 -35 21 6 59
13 84 17 36 5 43 4 33 -6 -22 -22 -14 -33 8 -13 13 12 23 15 27 8 4 -6 15 -10
24 -8 10 1 20 -2 24 -7 3 -5 9 -7 14 -4 9 5 50 -41 50 -56 0 -17 -39 -9 -43 8
-4 17 -5 17 -6 1 -1 -19 -27 -25 -33 -9 -1 5 -12 3 -22 -5 -26 -18 -14 -29 29
-26 19 2 35 -2 35 -8 0 -6 7 -5 20 2 16 10 24 10 40 0 15 -9 26 -10 41 -1 11
6 26 8 33 6 7 -3 18 4 24 14 8 12 24 19 45 19 42 0 100 40 134 93 23 36 27 54
28 120 2 70 5 82 28 106 26 28 74 41 148 41 25 0 29 -4 29 -30 0 -24 -8 -35
-40 -55 -40 -25 -49 -42 -30 -61 19 -19 51 -168 44 -206 -4 -30 -2 -39 11 -44
21 -8 35 11 35 48 0 15 5 30 10 33 6 4 10 -11 10 -37 0 -55 15 -75 63 -83 44
-8 46 -1 11 36 -33 35 -47 105 -34 166 9 40 73 183 99 222 7 11 15 9 43 -12
51 -40 109 -56 231 -67 99 -9 134 -20 122 -40 -1 -3 -6 -66 -10 -140 -4 -74
-9 -138 -11 -142 -2 -3 7 -19 20 -35 20 -24 31 -29 55 -25 39 5 39 16 0 44
-27 20 -30 27 -26 63 14 118 45 235 63 235 4 0 23 -9 43 -20 20 -11 48 -24 64
-30 56 -20 13 -99 -66 -121 -28 -7 -37 -15 -37 -31 0 -18 4 -20 33 -15 63 11
84 25 116 81 17 31 31 62 31 70 0 8 -24 37 -52 64 l-53 51 23 46 c12 25 22 54
22 65 0 11 9 25 20 32 11 7 20 23 20 36 0 22 27 70 79 140 24 33 25 33 40 14
18 -22 78 -41 65 -21 -5 8 -3 9 5 4 7 -4 24 -2 37 6 20 10 29 10 50 -1 18 -10
30 -11 42 -4 37 24 25 48 -63 129 -47 43 -85 84 -85 90 0 7 -10 10 -24 8 -13
-3 -34 0 -46 7 -26 14 -38 6 -21 -14 18 -21 5 -36 -29 -36 -17 0 -59 -16 -96
-35 -36 -19 -72 -35 -80 -35 -8 0 -14 -7 -14 -15 0 -8 -6 -15 -13 -15 -8 0
-22 -8 -31 -19 -14 -16 -23 -17 -58 -9 -32 7 -46 5 -65 -8 -51 -33 -189 -27
-318 13 -47 14 -56 14 -115 -2 -36 -9 -81 -21 -100 -25 -58 -12 -92 -32 -142
-81 -50 -49 -72 -89 -69 -126 0 -17 -5 -23 -19 -23 -11 0 -20 5 -20 10 0 6 5
10 12 10 6 0 9 3 5 6 -3 3 -16 -1 -29 -10 -30 -21 -47 -20 -41 3 4 14 -1 18
-24 19 -180 5 -175 3 -159 67 4 14 2 25 -4 25 -5 0 -10 5 -10 10 0 6 7 10 15
10 11 0 15 10 14 38 -1 30 -2 33 -8 13 -4 -15 -15 -25 -31 -28 -13 -2 -31 -10
-40 -18 -9 -8 -22 -15 -28 -15 -8 0 -12 -18 -12 -47 0 -33 -3 -43 -9 -34 -5 8
-10 68 -10 134 0 66 -3 123 -7 126 -3 3 -4 -58 -2 -137 2 -103 0 -142 -9 -142
-17 0 -130 60 -144 76 -6 8 -17 14 -24 14 -11 0 -10 7 2 33 9 17 21 35 26 38
5 3 2 9 -7 12 -18 7 -21 67 -10 201 l7 77 81 -3 81 -3 -2 -75 c-2 -67 -1 -70
7 -30 5 25 9 66 9 91 1 38 -3 48 -18 52 -11 3 -23 2 -26 -1 -11 -11 -180 -10
-187 1 -5 8 -21 8 -56 1 -58 -12 -87 0 -71 28 5 9 6 19 2 21 -5 2 -104 8 -221
11 l-213 7 2 -249z m1379 -165 c0 -1 -9 -20 -20 -42 -16 -31 -20 -34 -20 -17
0 24 20 62 32 62 5 0 8 -1 8 -3z m744 -13 c3 -8 2 -12 -4 -9 -6 3 -10 10 -10
16 0 14 7 11 14 -7z m-1244 -34 c0 -5 -2 -10 -4 -10 -3 0 -8 5 -11 10 -3 6 -1
10 4 10 6 0 11 -4 11 -10z m-10 -30 c0 -5 -6 -10 -12 -10 -9 0 -8 -4 2 -10 13
-9 13 -11 0 -19 -19 -13 -24 -7 -16 24 6 24 26 36 26 15z m1267 4 c-3 -3 -12
-4 -19 -1 -8 3 -5 6 6 6 11 1 17 -2 13 -5z m43 -29 c14 -19 14 -19 -2 -6 -10
7 -18 18 -18 24 0 6 1 8 3 6 1 -2 9 -13 17 -24z m-1491 -46 c-8 -5 -8 -8 0
-13 6 -4 14 -1 17 7 4 12 10 12 39 -2 58 -27 42 -38 -37 -25 -28 5 -42 15 -56
38 l-19 32 33 -15 c19 -9 29 -18 23 -22z m-680 12 c15 -8 18 -24 19 -90 0 -53
-3 -81 -11 -81 -6 0 -21 -10 -33 -21 l-23 -21 6 21 c3 11 10 21 17 21 6 0 11
14 12 30 1 17 -3 30 -7 30 -5 0 -9 -7 -9 -15 0 -20 -22 -65 -32 -65 -15 0 -7
113 10 157 18 45 23 49 51 34z m106 -39 c25 -22 80 -130 71 -139 -3 -3 -6 1
-6 10 0 9 -9 22 -20 29 -11 7 -20 22 -20 33 0 10 -19 39 -42 63 -40 42 -27 44
17 4z m925 13 c16 -10 12 -25 -7 -25 -16 -1 -16 -2 -3 -10 9 -5 71 -8 138 -7
67 1 122 -1 122 -4 0 -3 -62 -9 -137 -13 -151 -8 -213 -19 -213 -41 0 -7 -6
-16 -12 -18 -10 -4 -10 -6 -1 -6 6 -1 15 4 18 9 10 17 23 11 28 -12 4 -20 4
-19 6 5 0 15 8 30 16 34 25 9 28 -3 10 -37 -13 -25 -14 -35 -4 -46 6 -8 16
-14 22 -14 6 0 7 3 4 7 -4 3 1 15 10 26 17 19 17 20 1 14 -23 -8 -23 11 -2 41
15 22 54 31 54 12 0 -7 6 -8 17 -1 21 11 53 -3 53 -24 0 -16 -24 -31 -84 -51
-33 -11 -35 -12 -9 -8 27 5 32 3 27 -10 -3 -8 -22 -17 -42 -19 -32 -3 -31 -4
11 -5 27 -1 46 2 43 6 -4 7 54 42 69 42 3 0 5 -25 5 -55 0 -63 -13 -75 -58
-56 l-27 12 25 -21 c14 -11 28 -20 32 -20 13 0 -15 -50 -27 -50 -7 0 -24 15
-39 34 -14 19 -35 38 -46 41 -25 8 -26 32 -2 38 13 4 12 5 -5 6 -13 1 -26 12
-34 30 -15 33 -62 49 -86 30 -7 -7 -16 -9 -20 -5 -3 3 -1 6 6 6 7 0 9 5 6 10
-3 6 -1 10 4 10 18 0 5 42 -18 62 -13 10 -18 18 -12 18 6 0 11 13 11 29 0 23
6 31 28 39 28 10 104 8 122 -3z m849 -11 c2 -2 -9 -4 -25 -4 -16 0 -40 -3 -54
-6 l-25 -5 25 15 c21 13 64 13 79 0z m-499 -24 c0 -5 -18 -10 -41 -10 -24 0
-38 4 -34 10 3 6 22 10 41 10 19 0 34 -4 34 -10z m173 3 c-7 -2 -21 -2 -30 0
-10 3 -4 5 12 5 17 0 24 -2 18 -5z m-136 -9 c-3 -3 -12 -4 -19 -1 -8 3 -5 6 6
6 11 1 17 -2 13 -5z m-617 -14 c0 -13 -11 -13 -30 0 -12 8 -11 10 8 10 12 0
22 -4 22 -10z m-90 -14 c-19 -7 -44 -17 -55 -21 -11 -4 -6 2 10 13 17 11 41
21 55 21 21 0 20 -2 -10 -13z m137 8 c-3 -3 -12 -4 -19 -1 -8 3 -5 6 6 6 11 1
17 -2 13 -5z m-64 -21 c-7 -2 -19 -2 -25 0 -7 3 -2 5 12 5 14 0 19 -2 13 -5z
m67 -43 c-18 -26 -19 -30 -5 -30 20 0 14 -24 -7 -28 -9 -2 -18 3 -21 11 -6 17
28 77 44 77 5 0 1 -13 -11 -30z m-234 -9 c0 -11 -3 -18 -6 -16 -4 2 -13 -5
-21 -16 -8 -12 -19 -28 -25 -37 -9 -12 -25 -15 -65 -13 -66 3 -72 7 -58 32 9
19 17 20 67 14 55 -6 58 -5 80 24 27 36 28 37 28 12z m54 -12 c0 -6 -4 -7 -10
-4 -5 3 -10 11 -10 16 0 6 5 7 10 4 6 -3 10 -11 10 -16z m-296 -25 c9 -3 16
-12 16 -20 0 -10 -13 -14 -45 -14 -43 0 -58 14 -38 33 8 9 46 9 67 1z m303
-24 c3 -11 10 -20 15 -20 6 0 8 7 4 15 -8 22 1 18 14 -4 9 -19 7 -20 -50 -19
-33 0 -60 5 -60 10 0 5 -5 6 -11 2 -8 -4 -8 -1 -1 12 7 12 23 20 47 22 30 2
38 -2 42 -18z m243 10 c0 -5 -5 -10 -11 -10 -5 0 -7 5 -4 10 3 6 8 10 11 10 2
0 4 -4 4 -10z m504 -17 c-5 -16 -8 -52 -7 -82 2 -61 -7 -57 -31 13 -13 40 -13
52 -3 65 30 39 52 41 41 4z m-1344 13 c0 -2 -7 -6 -15 -10 -8 -3 -15 -1 -15 4
0 6 7 10 15 10 8 0 15 -2 15 -4z m890 -6 c0 -5 -2 -10 -4 -10 -3 0 -8 5 -11
10 -3 6 -1 10 4 10 6 0 11 -4 11 -10z m-136 -12 c-4 -5 -15 -8 -25 -5 -11 3
-19 1 -19 -5 0 -5 -4 -6 -10 -3 -20 13 -9 23 25 23 20 0 32 -4 29 -10z m100
-3 c-7 -16 -24 -21 -24 -6 0 8 7 13 27 20 1 1 0 -6 -3 -14z m-924 -5 c0 -5 -9
-10 -21 -10 -11 0 -17 5 -14 10 3 6 13 10 21 10 8 0 14 -4 14 -10z m160 -29
c0 -29 -21 -91 -30 -91 -6 0 -10 12 -11 28 0 15 -3 21 -6 15 -8 -21 -38 -15
-98 20 -53 30 -55 32 -30 35 45 6 78 -6 70 -25 -5 -14 -3 -14 15 2 11 10 20
23 20 30 0 7 13 9 35 7 24 -3 35 -9 35 -21z m202 -3 c-9 -9 -15 -9 -24 0 -9 9
-7 12 12 12 19 0 21 -3 12 -12z m568 2 c0 -5 -4 -10 -10 -10 -5 0 -10 5 -10
10 0 6 5 10 10 10 6 0 10 -4 10 -10z m-905 -54 c6 -6 19 -13 30 -14 11 -2 32
-11 47 -20 26 -15 27 -16 10 -44 -17 -29 -51 -35 -59 -11 -3 7 3 9 16 6 12 -3
21 -1 21 5 0 5 -11 13 -25 16 -27 7 -105 79 -105 97 0 12 46 -13 65 -35z m963
-17 c2 -37 -2 -60 -12 -74 -15 -19 -15 -19 -16 12 0 17 6 34 13 37 10 5 10 7
0 12 -7 3 -13 21 -13 41 0 58 25 34 28 -28z m-38 27 c0 -26 -15 -43 -24 -28
-7 12 4 52 15 52 5 0 9 -11 9 -24z m-40 0 c0 -19 -17 -29 -37 -22 -12 5 -13 9
-3 21 16 19 40 19 40 1z m149 -35 l32 -40 -23 -15 c-21 -15 -24 -15 -35 0 -6
9 -9 22 -6 30 3 8 0 14 -6 14 -6 0 -11 11 -11 25 0 35 13 31 49 -14z m-279 3
c0 -2 -9 -4 -20 -4 -11 0 -20 4 -20 9 0 5 9 7 20 4 11 -3 20 -7 20 -9z m94 0
c8 -3 12 -12 9 -19 -4 -11 -9 -12 -23 -3 -10 7 -16 16 -14 20 6 10 8 10 28 2z
m-4 -48 c7 -9 9 -16 6 -16 -13 0 -56 32 -56 42 0 11 32 -6 50 -26z m78 2 c3
-24 0 -27 -26 -25 -18 1 -28 7 -27 17 3 47 48 53 53 8z m72 -24 c0 -8 -4 -12
-10 -9 -5 3 -10 10 -10 16 0 5 5 9 10 9 6 0 10 -7 10 -16z m-110 -36 c0 -13
-32 -6 -37 9 -3 7 3 9 16 6 12 -3 21 -10 21 -15z m35 2 c3 -5 -1 -10 -10 -10
-9 0 -13 5 -10 10 3 6 8 10 10 10 2 0 7 -4 10 -10z"/>
<path d="M1375 509 c-10 -15 3 -25 16 -12 7 7 7 13 1 17 -6 3 -14 1 -17 -5z"/>
<path d="M541 274 c0 -11 3 -14 6 -6 3 7 2 16 -1 19 -3 4 -6 -2 -5 -13z"/>
<path d="M1348 673 c7 -3 16 -2 19 1 4 3 -2 6 -13 5 -11 0 -14 -3 -6 -6z"/>
<path d="M225 570 c-8 -13 25 -13 45 0 12 8 9 10 -12 10 -15 0 -30 -4 -33 -10z"/>
<path d="M140 510 c-47 -46 -63 -80 -40 -80 6 0 10 7 10 17 0 9 23 38 52 65
28 26 46 48 39 48 -6 0 -34 -22 -61 -50z"/>
<path d="M245 410 c10 -11 20 -20 23 -20 3 0 -3 9 -13 20 -10 11 -20 20 -23
20 -3 0 3 -9 13 -20z"/>
<path d="M208 323 c6 -2 18 -2 25 0 6 3 1 5 -13 5 -14 0 -19 -2 -12 -5z"/>
<path d="M990 268 c0 -9 19 -13 68 -14 63 -2 64 -1 20 6 -25 5 -56 11 -67 15
-14 4 -21 2 -21 -7z"/>
<path d="M0 240 c0 -5 5 -10 10 -10 6 0 10 5 10 10 0 6 -4 10 -10 10 -5 0 -10
-4 -10 -10z"/>
<path d="M808 213 c12 -2 32 -2 45 0 12 2 2 4 -23 4 -25 0 -35 -2 -22 -4z"/>
<path d="M888 213 c6 -2 18 -2 25 0 6 3 1 5 -13 5 -14 0 -19 -2 -12 -5z"/>
<path d="M90 191 c0 -5 5 -13 10 -16 6 -3 10 -2 10 4 0 5 -4 13 -10 16 -5 3
-10 2 -10 -4z"/>
<path d="M242 153 c-19 -29 -19 -34 -5 -31 13 2 39 57 30 64 -1 1 -12 -14 -25
-33z"/>
<path d="M371 168 c-1 -28 10 -48 28 -48 11 0 12 3 4 8 -7 4 -16 19 -22 32 -6
16 -10 19 -10 8z"/>
<path d="M311 163 c-1 -6 -4 -18 -7 -27 -4 -11 -1 -16 10 -16 18 0 19 6 6 35
-5 11 -9 15 -9 8z"/>
<path d="M1133 140 c-11 -19 -25 -30 -40 -30 -30 0 -39 18 -17 37 17 14 17 14
-6 1 -55 -32 -54 -30 -36 -40 38 -21 72 -26 91 -12 10 8 16 14 12 14 -4 0 -1
14 8 30 9 17 13 30 11 30 -3 0 -13 -13 -23 -30z"/>
<path d="M110 150 c0 -4 10 -15 22 -26 17 -16 20 -16 15 -3 -3 9 -1 21 5 27 6
6 1 10 -16 10 -14 0 -26 -4 -26 -8z"/>
<path d="M168 133 c6 -2 18 -2 25 0 6 3 1 5 -13 5 -14 0 -19 -2 -12 -5z"/>
</g>
</svg>
