<?xml version="1.0" standalone="no"?>
<!DOCTYPE svg PUBLIC "-//W3C//DTD SVG 20010904//EN"
 "http://www.w3.org/TR/2001/REC-SVG-20010904/DTD/svg10.dtd">
<svg version="1.0" xmlns="http://www.w3.org/2000/svg"
 width="300.000000pt" height="197.000000pt" viewBox="0 0 300.000000 197.000000"
 preserveAspectRatio="xMidYMid meet">

<g transform="translate(0.000000,197.000000) scale(0.100000,-0.100000)"
fill="#000000" stroke="none">
<path d="M0 985 l0 -985 1500 0 1500 0 0 985 0 985 -1500 0 -1500 0 0 -985z
m1556 710 c-2 -7 0 -17 6 -23 17 -17 -11 -44 -41 -40 -21 2 -26 8 -23 28 1 14
4 43 5 65 7 83 7 82 33 32 14 -27 23 -55 20 -62z m-126 -24 c0 -12 -29 -41
-39 -41 -15 0 -31 26 -37 59 l-7 33 42 -21 c22 -12 41 -25 41 -30z m239 8
c-16 -46 -23 -53 -48 -40 -31 17 -26 38 17 60 20 10 38 18 40 17 1 -2 -3 -18
-9 -37z m-333 18 c2 -2 0 -15 -4 -30 l-7 -27 -29 37 -29 36 33 -7 c18 -3 35
-8 36 -9z m392 -18 c-22 -30 -23 -30 -32 -9 -11 24 4 40 37 40 16 0 15 -3 -5
-31z m-485 -129 c-20 -35 -19 -35 -69 -13 l-39 16 40 13 c22 7 50 13 63 13 23
1 23 1 5 -29z m131 14 c7 -19 -10 -54 -28 -54 -7 0 -26 10 -41 22 l-28 22 29
13 c40 17 61 16 68 -3z m174 4 c13 -13 16 -60 5 -72 -4 -4 -15 8 -24 26 l-17
33 -13 -28 c-14 -31 -32 -31 -37 0 -6 41 56 71 86 41z m165 1 c32 -17 32 -17
6 -38 -33 -28 -57 -26 -65 3 -11 44 14 58 59 35z m132 -3 l50 -13 -39 -16
c-50 -22 -51 -22 -76 13 -20 28 -20 30 -3 30 10 0 41 -6 68 -14z m-645 -171
l0 -35 -42 6 c-73 10 -75 14 -23 39 28 13 53 24 58 24 4 1 7 -15 7 -34z m146
9 c9 -35 -7 -48 -50 -40 -42 8 -43 12 -14 43 29 31 56 30 64 -3z m211 -4 c10
-20 10 -29 -1 -44 -18 -28 -33 -30 -41 -7 -5 17 -10 19 -25 11 -31 -17 -37 41
-6 63 21 14 60 2 73 -23z m193 5 l23 -24 -28 -11 c-37 -14 -59 -9 -63 13 -10
50 30 63 68 22z m135 0 c53 -25 51 -29 -22 -39 l-43 -6 0 35 c0 19 3 35 8 34
4 0 30 -11 57 -24z m-965 -344 c0 -4 -7 -8 -15 -8 -16 0 -20 9 -9 20 8 8 24
-1 24 -12z m1210 -1 c0 -5 -7 -7 -15 -4 -8 4 -12 10 -9 15 6 11 24 2 24 -11z
m65 10 c3 -5 1 -10 -4 -10 -6 0 -11 5 -11 10 0 6 2 10 4 10 3 0 8 -4 11 -10z
m-1388 -6 c-3 -3 -12 -4 -19 -1 -8 3 -5 6 6 6 11 1 17 -2 13 -5z m1430 0 c-3
-3 -12 -4 -19 -1 -8 3 -5 6 6 6 11 1 17 -2 13 -5z m-746 -51 c13 -16 12 -17
-3 -4 -17 13 -22 21 -14 21 2 0 10 -8 17 -17z m53 -58 c24 -18 18 -26 -12 -18
-12 3 -22 12 -22 19 0 18 10 17 34 -1z m-989 -74 c-3 -6 -11 -8 -17 -5 -6 4
-5 9 3 15 16 10 23 4 14 -10z m1785 -2 c0 -6 -4 -7 -10 -4 -5 3 -10 11 -10 16
0 6 5 7 10 4 6 -3 10 -11 10 -16z m150 2 c0 -4 -7 -8 -15 -8 -16 0 -20 9 -9
20 8 8 24 -1 24 -12z m-1790 -1 c0 -5 -2 -10 -4 -10 -3 0 -8 5 -11 10 -3 6 -1
10 4 10 6 0 11 -4 11 -10z m1677 4 c-3 -3 -12 -4 -19 -1 -8 3 -5 6 6 6 11 1
17 -2 13 -5z m-1562 -54 c3 -5 -1 -10 -10 -10 -9 0 -13 5 -10 10 3 6 8 10 10
10 2 0 7 -4 10 -10z m-365 -260 c0 -5 -2 -10 -4 -10 -3 0 -8 5 -11 10 -3 6 -1
10 4 10 6 0 11 -4 11 -10z m110 0 c0 -5 -4 -10 -10 -10 -5 0 -10 5 -10 10 0 6
5 10 10 10 6 0 10 -4 10 -10z m110 6 c0 -3 -4 -8 -10 -11 -5 -3 -10 -1 -10 4
0 6 5 11 10 11 6 0 10 -2 10 -4z m1560 -6 c0 -5 -4 -10 -10 -10 -5 0 -10 5
-10 10 0 6 5 10 10 10 6 0 10 -4 10 -10z m147 4 c-3 -3 -12 -4 -19 -1 -8 3 -5
6 6 6 11 1 17 -2 13 -5z m33 -4 c0 -5 -2 -10 -4 -10 -3 0 -8 5 -11 10 -3 6 -1
10 4 10 6 0 11 -4 11 -10z m80 2 c0 -5 -7 -9 -15 -9 -8 0 -15 4 -15 9 0 4 7 8
15 8 8 0 15 -4 15 -8z m100 4 c0 -3 -4 -8 -10 -11 -5 -3 -10 -1 -10 4 0 6 5
11 10 11 6 0 10 -2 10 -4z"/>
</g>
</svg>
