<?xml version="1.0" standalone="no"?>
<!DOCTYPE svg PUBLIC "-//W3C//DTD SVG 20010904//EN"
 "http://www.w3.org/TR/2001/REC-SVG-20010904/DTD/svg10.dtd">
<svg version="1.0" xmlns="http://www.w3.org/2000/svg"
 width="254.000000pt" height="300.000000pt" viewBox="0 0 254.000000 300.000000"
 preserveAspectRatio="xMidYMid meet">

<g transform="translate(0.000000,300.000000) scale(0.100000,-0.100000)"
fill="#000000" stroke="none">
<path d="M326 2884 c-27 -9 -56 -22 -64 -31 -8 -8 -26 -13 -39 -10 -12 2 -23
0 -23 -4 0 -5 -7 -9 -15 -9 -8 0 -15 -6 -15 -12 0 -7 -5 -5 -11 5 -8 13 -15
15 -28 7 -10 -5 -20 -8 -23 -7 -2 1 8 -10 23 -24 23 -23 38 -27 113 -34 52 -4
86 -11 86 -18 0 -8 3 -8 11 0 6 6 26 7 52 2 36 -6 263 -14 277 -10 3 1 37 4
75 6 103 5 195 15 234 25 19 5 38 7 42 5 4 -3 36 2 71 12 34 9 73 16 86 15 35
-3 26 27 -14 44 -40 17 -106 25 -234 28 -47 1 -91 5 -97 9 -8 5 -13 3 -13 -5
0 -10 -2 -10 -8 -1 -5 8 -19 9 -47 3 -21 -5 -42 -7 -46 -5 -6 4 -83 6 -209 6
-25 0 -49 4 -54 10 -14 13 -73 10 -130 -7z"/>
<path d="M84 2799 c-3 -6 -1 -16 5 -22 6 -6 11 -7 11 -1 0 5 4 2 10 -6 5 -8
12 -12 15 -8 7 7 -16 48 -27 48 -4 0 -10 -5 -14 -11z"/>
<path d="M1179 2782 c-59 -45 -134 -66 -274 -77 -44 -3 -96 -10 -115 -14 -19
-4 -51 -4 -72 -1 -28 6 -35 4 -31 -7 4 -9 31 -14 97 -15 126 -3 136 -2 176 5
19 4 49 9 66 11 17 2 41 7 53 11 17 5 21 2 21 -14 0 -12 7 -21 15 -21 10 0 15
-10 15 -34 0 -19 5 -38 10 -41 6 -3 10 3 10 13 0 11 7 23 15 26 20 7 55 -14
55 -34 0 -8 6 -3 14 12 17 31 19 101 3 91 -6 -3 -7 -1 -3 6 8 13 -14 101 -25
101 -3 0 -17 -8 -30 -18z"/>
<path d="M57 2748 c-4 -12 -1 -28 5 -35 7 -9 7 -13 0 -13 -19 0 -22 -35 -13
-131 6 -52 15 -173 21 -269 6 -96 18 -238 25 -315 8 -77 19 -189 25 -250 6
-60 13 -123 16 -140 8 -41 11 -72 12 -128 1 -27 6 -46 11 -43 5 4 7 -4 3 -16
-4 -16 -2 -19 9 -13 8 5 11 5 7 1 -3 -4 -2 -21 2 -37 7 -22 5 -29 -6 -29 -9 0
-12 -8 -10 -22 3 -13 5 -27 6 -33 0 -5 8 -1 17 10 13 16 15 17 10 3 -5 -14 -1
-18 17 -18 13 0 23 -6 23 -14 0 -8 -6 -12 -14 -9 -7 3 -13 0 -13 -6 0 -6 7
-11 15 -11 8 0 16 -4 16 -10 1 -5 2 -15 3 -22 2 -16 26 -22 27 -6 0 7 4 4 8
-7 9 -23 4 -45 -11 -45 -6 0 -8 7 -4 15 3 9 0 15 -10 15 -12 0 -12 -4 -4 -20
8 -15 8 -20 -2 -20 -6 0 -3 -7 8 -16 13 -11 15 -17 6 -20 -6 -3 -10 -10 -6
-15 3 -5 1 -9 -5 -9 -5 0 -12 6 -14 13 -3 6 -6 3 -6 -8 -1 -11 10 -33 25 -48
14 -15 31 -42 39 -60 8 -17 14 -26 15 -19 0 10 4 10 20 0 12 -8 15 -15 9 -19
-7 -4 -8 -9 -1 -13 5 -3 -11 -28 -37 -54 -25 -27 -51 -55 -58 -63 -6 -8 -27
-29 -47 -46 -24 -22 -40 -50 -51 -85 -18 -65 -19 -81 -10 -188 8 -91 26 -140
52 -140 9 0 13 -3 10 -7 -11 -10 31 -35 46 -27 6 4 9 4 5 -1 -4 -4 6 -18 22
-30 16 -12 26 -26 22 -30 -4 -5 -2 -5 5 -1 6 3 20 -2 30 -13 49 -51 226 -29
318 38 28 20 68 48 90 61 22 13 45 29 52 35 36 30 43 35 52 35 5 0 38 23 72
50 34 28 68 50 76 50 7 0 13 11 13 25 0 14 9 31 23 39 12 9 35 32 50 51 28 35
28 37 12 56 -17 18 -16 20 26 59 24 22 47 40 50 40 17 0 31 65 26 118 -4 48
-1 61 16 79 13 15 23 46 29 85 10 72 27 101 29 47 1 -18 2 -77 4 -129 3 -113
23 -422 35 -538 6 -63 12 -86 26 -97 14 -10 21 -10 27 -2 6 8 7 5 3 -6 -6 -17
16 -62 25 -53 2 2 5 -9 6 -26 3 -33 16 -54 45 -69 12 -7 18 -6 18 1 0 6 -11
16 -25 22 -14 6 -25 15 -25 19 0 17 59 -27 65 -48 3 -13 10 -23 16 -23 6 0 7
5 4 10 -4 6 9 0 27 -13 25 -16 47 -22 84 -22 27 1 55 4 60 8 16 9 81 -17 76
-31 -8 -25 39 -11 71 21 18 19 42 39 55 46 13 7 22 20 21 29 -4 35 14 85 32
89 10 3 20 12 22 22 3 9 5 4 6 -11 1 -34 17 -45 26 -18 3 11 13 20 21 20 13 0
15 9 19 100 1 42 -32 215 -48 246 -21 40 -93 114 -112 114 -22 0 -19 -6 25
-46 38 -34 83 -130 105 -219 6 -28 4 -27 -28 15 -19 25 -48 56 -64 70 -17 14
-47 45 -68 70 -36 43 -39 45 -89 42 -135 -6 -185 -3 -214 12 -29 15 -30 15
-37 -12 -4 -15 -12 -30 -18 -34 -9 -6 -9 -8 1 -8 7 0 15 6 17 13 7 17 102 10
102 -8 0 -19 -95 -41 -110 -26 -19 19 -34 12 -88 -41 -49 -49 -52 -50 -46 -22
4 16 11 52 17 79 6 28 17 55 25 61 8 6 15 16 15 21 0 5 12 16 26 23 22 12 27
12 34 0 6 -8 10 -10 10 -5 0 43 -41 43 -104 0 l-38 -26 23 33 c13 18 24 46 24
63 1 16 5 42 9 57 6 19 4 28 -3 28 -6 0 -11 9 -11 21 0 11 -4 18 -9 14 -6 -3
-15 3 -20 14 -14 25 -14 44 -1 36 6 -4 8 -11 5 -16 -4 -5 -1 -9 4 -9 6 0 11 6
11 14 0 7 7 19 15 26 9 8 12 17 6 24 -16 21 -20 94 -5 107 10 8 11 16 3 31 -6
11 -9 36 -7 54 2 19 0 34 -5 34 -5 0 -4 7 4 16 11 13 9 14 -17 9 -19 -4 -25
-3 -16 3 17 12 6 105 -12 99 -6 -2 -17 -27 -25 -55 -8 -30 -20 -52 -27 -52 -8
0 -14 6 -15 13 0 6 -2 35 -5 62 -2 28 -6 132 -8 232 -2 100 -7 186 -10 191 -3
6 -2 12 3 14 12 4 26 629 16 688 -6 34 -9 38 -21 26 -17 -18 -18 -36 -1 -37 6
0 3 -4 -8 -9 -13 -6 -15 -9 -5 -9 10 -1 11 -4 3 -9 -8 -5 -8 -21 -1 -60 9 -44
8 -56 -3 -63 -12 -8 -12 -10 0 -18 11 -7 11 -13 -3 -32 -9 -13 -16 -19 -16
-13 0 5 5 15 11 21 7 7 7 13 1 17 -6 3 -13 2 -17 -4 -11 -18 -9 -74 3 -78 7
-2 12 -16 11 -30 0 -24 -1 -25 -8 -7 -7 16 -10 10 -16 -29 -8 -52 -30 -103
-42 -98 -4 2 -8 -1 -9 -8 -2 -6 -1 -7 3 0 5 12 23 4 23 -11 0 -14 -26 -11 -39
5 -8 10 -9 16 -1 21 13 8 13 75 0 75 -6 0 -3 12 7 28 16 24 16 25 1 14 -14
-11 -18 -10 -27 7 -15 27 -14 31 4 25 10 -4 15 0 15 11 0 11 -5 15 -15 11 -9
-3 -15 0 -15 9 0 8 5 15 10 15 6 0 10 7 10 15 0 8 -4 15 -8 15 -12 0 -12 89
-1 96 15 9 10 24 -6 18 -9 -4 -15 0 -15 9 0 8 5 17 12 19 6 2 13 14 14 26 3
15 0 20 -11 16 -11 -5 -15 1 -15 18 0 13 -7 34 -16 46 -14 20 -14 22 0 22 9 0
16 -4 16 -10 0 -5 5 -10 11 -10 8 0 8 5 -1 15 -7 8 -18 15 -26 15 -7 0 -14 12
-16 28 -3 29 -16 31 -93 16 -16 -3 -82 -9 -145 -13 -63 -4 -96 -8 -73 -9 35
-2 45 -7 57 -29 14 -26 15 -27 16 -5 0 12 4 22 9 22 6 0 9 -9 8 -20 -1 -22
-39 -40 -45 -21 -4 13 -52 15 -52 1 0 -5 11 -17 25 -26 16 -10 25 -26 26 -43
l1 -26 10 28 c11 30 28 36 28 10 1 -16 2 -17 13 -2 10 13 14 14 24 3 13 -14
26 -65 26 -101 -1 -14 4 -20 12 -16 20 7 27 34 14 50 -9 11 -9 17 1 26 10 10
12 8 6 -8 -6 -19 -6 -19 8 -1 14 18 15 17 12 -5 -3 -30 -16 -60 -32 -76 -14
-15 -51 8 -40 25 3 6 1 14 -5 18 -8 5 -10 -1 -7 -17 5 -30 -33 -74 -51 -56 -8
8 -11 8 -11 0 0 -24 13 -43 29 -43 14 0 14 2 1 10 -8 5 -10 10 -5 10 6 0 17
-4 25 -10 9 -6 17 -5 22 3 5 8 8 6 8 -6 0 -14 -5 -17 -20 -12 -23 7 -28 -13
-5 -21 8 -4 15 -11 15 -16 0 -6 -7 -7 -16 -4 -16 6 -16 -6 2 -65 4 -13 -2 -16
-27 -15 -20 1 -34 -5 -37 -13 -3 -8 0 -11 6 -7 5 3 15 -8 21 -24 6 -18 6 -28
1 -25 -6 4 -10 14 -10 23 0 10 -3 13 -8 6 -7 -10 -93 -46 -120 -50 -19 -3 -28
-14 -13 -14 7 0 9 -5 6 -10 -9 -15 38 -30 48 -16 5 8 10 7 16 -3 5 -8 14 -10
21 -6 8 5 11 3 8 -6 -3 -8 -13 -13 -22 -13 -9 1 -16 -4 -16 -12 0 -8 5 -14 11
-14 6 0 17 -6 24 -14 12 -12 12 -15 0 -20 -18 -7 -45 3 -45 16 0 5 6 6 13 2 8
-5 8 -2 -2 9 -7 9 -15 17 -17 17 -10 0 -2 -50 9 -62 15 -15 19 -50 5 -42 -5 3
-20 -2 -33 -10 -24 -16 -25 -15 -25 4 0 12 -5 18 -10 15 -6 -3 -7 -17 -4 -30
3 -12 2 -25 -3 -28 -5 -3 -9 4 -9 16 1 13 -4 21 -11 20 -11 -3 -19 31 -14 60
0 4 -16 6 -37 6 -30 -2 -32 -3 -9 -6 21 -3 27 -10 27 -29 0 -13 -4 -24 -9 -24
-5 0 -7 9 -4 20 4 14 0 20 -11 20 -11 0 -15 -5 -11 -12 4 -7 -1 -4 -9 7 -16
19 -17 38 -3 35 5 0 17 9 28 22 17 21 18 21 13 3 -5 -16 -4 -17 5 -5 6 9 7 18
1 24 -13 13 -13 29 0 21 6 -4 10 7 10 25 0 18 -4 29 -10 25 -5 -3 -10 -1 -10
6 0 7 -3 9 -6 6 -4 -4 -1 -14 7 -24 12 -15 12 -16 -4 -10 -10 4 -21 7 -23 7
-3 0 1 10 7 22 9 16 9 23 0 26 -6 2 -11 10 -11 18 0 9 -4 13 -9 9 -5 -3 -7
-21 -4 -40 5 -30 3 -34 -11 -29 -14 5 -16 2 -11 -19 4 -14 2 -28 -4 -31 -7 -5
-11 6 -11 29 0 25 -4 34 -12 29 -7 -5 -8 -3 -4 5 5 7 15 10 23 7 11 -5 13 -2
9 10 -3 8 -6 25 -7 37 0 21 -1 21 -9 2 -8 -17 -9 -18 -11 -2 -2 20 -3 25 -13
52 -17 46 -30 65 -43 65 -7 0 -13 6 -13 14 0 8 -3 22 -7 32 -4 12 -3 15 5 10
8 -5 12 1 12 18 0 14 4 26 9 26 4 0 8 -13 7 -30 -1 -16 -4 -30 -8 -30 -16 0 6
-32 28 -41 13 -5 24 -12 23 -16 -3 -19 2 -33 12 -33 8 0 7 6 -2 17 -13 15 -11
16 14 11 15 -3 27 -1 27 4 0 5 5 6 10 3 6 -3 10 -1 10 5 0 7 -8 9 -20 5 -21
-7 -29 10 -7 18 6 2 9 7 5 11 -3 4 -17 0 -31 -9 -22 -14 -25 -14 -31 0 -3 10
-11 13 -18 9 -10 -5 -10 -4 0 7 10 10 15 11 20 2 5 -8 12 -9 22 -2 13 8 13 10
0 19 -8 5 -10 10 -3 10 13 0 -6 50 -20 50 -5 0 -5 5 -2 10 3 6 1 10 -4 10 -6
0 -11 -5 -11 -11 0 -7 -8 -9 -22 -4 -13 4 -34 7 -48 7 -22 -1 -23 0 -5 7 17 7
17 9 3 17 -14 8 -14 12 -3 27 12 16 13 16 19 -8 4 -14 11 -25 16 -25 6 0 1 18
-10 40 -11 22 -26 40 -33 39 -9 0 -9 -2 1 -6 6 -2 12 -9 12 -15 0 -6 -7 -8
-15 -4 -8 3 -15 1 -15 -3 0 -5 6 -12 13 -14 8 -4 7 -6 -3 -6 -22 -1 -39 18
-34 38 3 9 -2 5 -11 -9 -10 -15 -14 -18 -11 -7 3 10 6 25 6 33 0 8 6 11 15 8
10 -4 15 0 15 14 0 19 21 25 36 9 10 -9 34 -9 33 1 -1 4 -1 14 0 22 1 13 3 13
10 1 5 -8 7 -20 4 -28 -4 -9 0 -11 11 -7 9 3 16 10 16 14 0 13 31 5 41 -11 7
-10 9 -2 7 28 -2 23 0 39 4 37 5 -3 8 -12 8 -20 0 -16 16 -19 25 -4 4 6 11 8
16 4 5 -3 7 -9 4 -14 -7 -12 21 -20 33 -8 13 13 68 6 65 -9 -2 -7 4 -10 11 -7
8 3 12 12 9 20 -3 8 -1 14 5 14 6 0 8 10 4 23 -5 20 -4 21 11 8 13 -10 17 -10
17 -1 0 6 -9 14 -21 17 -11 3 -18 11 -15 18 5 15 -92 27 -110 14 -5 -5 -20 -6
-32 -2 -12 3 -30 2 -39 -2 -10 -5 -26 -7 -35 -6 -10 1 -18 -4 -18 -11 0 -8 -5
-6 -11 5 -8 14 -14 15 -31 6 -15 -8 -19 -8 -14 0 10 15 -8 21 -127 40 -82 14
-103 20 -105 35 -3 13 1 17 15 12 50 -14 96 -18 89 -7 -4 6 -11 9 -16 6 -5 -3
-11 -1 -14 4 -3 5 8 11 24 13 24 4 30 1 30 -14 0 -12 7 -18 24 -18 14 0 28 4
31 10 3 6 -1 7 -10 4 -18 -7 -44 21 -45 48 0 9 -4 20 -10 23 -5 3 -7 0 -4 -8
9 -24 -10 -28 -57 -13 -40 13 -42 14 -14 15 17 1 37 6 45 11 11 8 -1 9 -38 6
-41 -4 -61 0 -85 15 -41 25 -53 24 -60 -3z m83 -97 c0 -6 -4 -13 -10 -16 -5
-3 -10 1 -10 9 0 9 5 16 10 16 6 0 10 -4 10 -9z m790 -75 c0 -3 -4 -8 -10 -11
-5 -3 -10 -1 -10 4 0 6 5 11 10 11 6 0 10 -2 10 -4z m-262 -46 c3 -16 0 -20
-9 -14 -8 5 -11 2 -6 -8 4 -11 1 -14 -12 -11 -13 3 -16 12 -13 33 5 34 35 35
40 0z m262 -55 c0 -8 -7 -11 -20 -8 -11 3 -20 8 -20 12 0 4 9 7 20 8 11 1 20
-4 20 -12z m-644 -23 c-18 -18 -29 -12 -20 11 3 9 12 13 21 10 13 -5 13 -8 -1
-21z m604 -12 c0 -5 -4 -10 -10 -10 -5 0 -10 5 -10 10 0 6 5 10 10 10 6 0 10
-4 10 -10z m65 -50 c3 -5 1 -10 -4 -10 -6 0 -11 5 -11 10 0 6 2 10 4 10 3 0 8
-4 11 -10z m-655 -84 c0 -3 -4 -8 -10 -11 -5 -3 -10 -1 -10 4 0 6 5 11 10 11
6 0 10 -2 10 -4z m107 -18 c-3 -8 -6 -5 -6 6 -1 11 2 17 5 13 3 -3 4 -12 1
-19z m54 -15 c-9 -15 -10 -14 -7 7 6 35 7 37 12 23 3 -7 1 -20 -5 -30z m-96
-19 c13 -5 14 -9 3 -15 -10 -7 -7 -11 10 -15 32 -9 27 -22 -5 -16 -26 5 -27 4
-10 -12 21 -22 22 -32 1 -40 -11 -4 -18 1 -21 14 -5 19 -6 20 -19 3 -13 -17
-13 -17 -14 0 0 9 8 24 19 33 11 10 16 24 14 35 -6 21 -3 22 22 13z m68 -103
c-3 -14 -10 -36 -14 -49 -5 -13 -9 -40 -9 -59 0 -20 -2 -34 -5 -32 -8 9 -13
99 -5 94 10 -6 20 20 19 48 0 21 -1 21 -9 2 -8 -18 -9 -17 -9 7 -1 21 3 25 19
21 16 -4 18 -11 13 -32z m510 -3 c13 3 18 1 14 -4 -5 -5 -14 -9 -20 -9 -7 0
-11 -9 -10 -20 1 -11 0 -15 -3 -8 -3 7 -12 9 -20 6 -9 -3 -15 2 -15 13 -1 11
-5 1 -9 -21 l-7 -40 -2 48 c-1 44 1 48 19 42 13 -4 20 -2 21 7 1 7 3 6 6 -3 3
-12 11 -15 26 -11z m-578 -18 c-3 -5 -11 -10 -16 -10 -6 0 -7 5 -4 10 3 6 11
10 16 10 6 0 7 -4 4 -10z m846 -4 c5 3 9 -2 9 -10 0 -9 -2 -16 -4 -16 -2 0
-11 -3 -19 -6 -11 -4 -13 1 -9 23 3 15 7 22 10 15 2 -6 8 -10 13 -6z m-754
-28 c-3 -8 -6 -5 -6 6 -1 11 2 17 5 13 3 -3 4 -12 1 -19z m376 -44 c-15 -13
-22 -23 -15 -24 6 0 12 -8 13 -17 0 -12 5 -8 14 12 8 17 14 24 15 17 0 -7 6
-10 13 -7 6 4 3 -1 -7 -9 -11 -9 -14 -16 -8 -16 7 0 12 -5 12 -11 0 -5 -5 -7
-12 -3 -7 5 -9 2 -6 -7 4 -10 -1 -15 -12 -15 -10 0 -16 4 -14 8 3 4 0 8 -5 8
-6 0 -11 7 -11 15 0 20 -29 19 -37 -1 -3 -8 0 -27 8 -42 7 -15 15 -30 17 -34
2 -5 -2 -8 -7 -8 -6 0 -11 9 -11 21 0 12 -4 17 -11 14 -7 -5 -9 8 -6 41 2 28
9 50 17 52 7 3 10 0 6 -7 -12 -20 9 -12 24 9 8 11 20 20 28 20 7 0 12 6 11 13
-3 25 4 41 8 18 4 -17 -3 -30 -24 -47z m-373 12 c0 -8 -5 -18 -12 -22 -7 -5
-9 -2 -5 9 3 9 1 18 -6 21 -7 2 -4 5 6 5 9 1 17 -5 17 -13z m297 -25 c-1 -12
-7 -17 -19 -13 -18 4 -18 5 -1 18 23 17 22 17 20 -5z m-50 -13 c-3 -8 -6 -5
-6 6 -1 11 2 17 5 13 3 -3 4 -12 1 -19z m-230 -25 c0 -17 -14 -32 -28 -33 -4
0 -9 9 -12 20 -3 11 -2 18 2 16 4 -3 13 -1 21 5 8 5 15 9 16 9 0 0 1 -8 1 -17z
m628 7 c3 -5 1 -10 -4 -10 -6 0 -11 5 -11 10 0 6 2 10 4 10 3 0 8 -4 11 -10z
m-549 -31 c-6 -31 -44 -71 -58 -62 -11 6 -10 43 2 43 5 0 7 -7 4 -15 -5 -11
-2 -13 10 -9 9 3 13 11 9 17 -3 6 -1 7 5 3 7 -4 12 -2 12 3 0 6 -4 11 -10 11
-14 0 -12 27 3 33 25 11 29 6 23 -24z m616 -2 c-14 -20 -14 -77 0 -94 9 -12 9
-15 1 -9 -7 4 -13 2 -13 -3 0 -6 4 -11 8 -11 5 0 9 -7 9 -15 0 -8 -3 -13 -5
-10 -3 3 -11 0 -18 -6 -8 -7 -14 -6 -20 2 -4 8 -3 9 4 5 8 -5 12 5 12 34 0 23
-4 39 -8 36 -13 -8 -9 38 5 52 7 7 13 20 13 28 0 8 5 12 10 9 7 -4 7 -12 2
-18z m-364 -22 c-3 -3 -9 2 -12 12 -6 14 -5 15 5 6 7 -7 10 -15 7 -18z m256
-1 c3 -8 2 -12 -4 -9 -6 3 -10 10 -10 16 0 14 7 11 14 -7z m149 -4 c-3 -11 -7
-20 -9 -20 -2 0 -4 9 -4 20 0 11 4 20 9 20 5 0 7 -9 4 -20z m-249 2 c-6 -4
-16 -16 -22 -27 -11 -20 -11 -20 -12 2 0 20 11 31 35 32 6 0 5 -2 -1 -7z m220
-37 c3 -8 1 -15 -4 -15 -6 0 -10 7 -10 15 0 8 2 15 4 15 2 0 6 -7 10 -15z m23
-17 c-3 -8 -6 -5 -6 6 -1 11 2 17 5 13 3 -3 4 -12 1 -19z m-707 -9 c7 -11 9
-23 6 -27 -3 -3 -6 0 -6 8 0 9 -3 10 -14 1 -11 -9 -15 -8 -20 4 -4 11 -2 14 6
9 8 -5 9 -2 5 9 -9 24 10 21 23 -4z m520 1 c0 -5 -4 -10 -10 -10 -5 0 -10 5
-10 10 0 6 5 10 10 10 6 0 10 -4 10 -10z m50 6 c0 -3 -4 -8 -10 -11 -5 -3 -10
-1 -10 4 0 6 5 11 10 11 6 0 10 -2 10 -4z m70 -32 c0 -18 -8 -18 -26 0 -10 11
-11 15 -1 19 16 6 27 -1 27 -19z m-382 -30 c-3 -14 -5 -12 -10 9 -3 19 -2 25
4 19 6 -6 8 -18 6 -28z m-301 4 c-3 -8 -6 -5 -6 6 -1 11 2 17 5 13 3 -3 4 -12
1 -19z m523 2 c-8 -5 -19 -10 -25 -10 -5 0 -3 5 5 10 8 5 20 10 25 10 6 0 3
-5 -5 -10z m-250 -16 c0 -2 -13 -4 -30 -4 -16 0 -30 4 -30 8 0 5 14 7 30 4 17
-2 30 -6 30 -8z m339 -31 c0 -11 -3 -13 -6 -5 -2 6 -10 9 -15 6 -7 -4 -8 -2
-4 4 11 18 26 14 25 -5z m-405 -15 c3 -13 1 -27 -4 -32 -7 -7 -10 -5 -11 5 0
7 -2 22 -4 32 -5 25 12 21 19 -5z m60 6 c3 -8 2 -12 -4 -9 -6 3 -10 10 -10 16
0 14 7 11 14 -7z m-94 -4 c0 -5 -5 -10 -11 -10 -5 0 -7 5 -4 10 3 6 8 10 11
10 2 0 4 -4 4 -10z m510 -5 c0 -8 -4 -15 -10 -15 -5 0 -7 7 -4 15 4 8 8 15 10
15 2 0 4 -7 4 -15z m-803 -1 c-3 -3 -12 -4 -19 -1 -8 3 -5 6 6 6 11 1 17 -2
13 -5z m328 -54 c3 -5 1 -10 -4 -10 -6 0 -11 5 -11 10 0 6 2 10 4 10 3 0 8 -4
11 -10z m-355 -20 c0 -5 -2 -10 -4 -10 -3 0 -8 5 -11 10 -3 6 -1 10 4 10 6 0
11 -4 11 -10z m103 -13 c7 4 6 0 -2 -10 -14 -18 -26 -23 -16 -8 3 5 1 12 -5
16 -5 3 -10 12 -10 18 0 7 5 4 11 -6 6 -10 15 -14 22 -10z m294 -14 c-3 -10
-5 -4 -5 12 0 17 2 24 5 18 2 -7 2 -21 0 -30z m370 0 c-3 -10 -5 -4 -5 12 0
17 2 24 5 18 2 -7 2 -21 0 -30z m33 13 c0 -3 -4 -8 -10 -11 -5 -3 -10 -1 -10
4 0 6 5 11 10 11 6 0 10 -2 10 -4z m-292 -18 c-4 -17 -28 -42 -34 -35 -7 6 18
47 28 47 5 0 7 -6 6 -12z m-188 -14 c0 -2 -7 -4 -15 -4 -8 0 -15 4 -15 10 0 5
7 7 15 4 8 -4 15 -8 15 -10z m-123 -26 c-3 -8 -6 -5 -6 6 -1 11 2 17 5 13 3
-3 4 -12 1 -19z m488 -18 c3 -5 1 -10 -4 -10 -6 0 -11 5 -11 10 0 6 2 10 4 10
3 0 8 -4 11 -10z m-188 -22 c-3 -8 -6 -5 -6 6 -1 11 2 17 5 13 3 -3 4 -12 1
-19z m-26 -21 c-10 -9 -11 -8 -5 6 3 10 9 15 12 12 3 -3 0 -11 -7 -18z m-41
-1 c0 -11 -19 -15 -25 -6 -3 5 1 10 9 10 9 0 16 -2 16 -4z m40 -26 c0 -5 -7
-7 -15 -4 -8 4 -15 8 -15 10 0 2 7 4 15 4 8 0 15 -4 15 -10z m186 -9 c0 -11
-4 -17 -8 -15 -4 3 -8 -3 -8 -12 0 -10 -3 -15 -6 -11 -8 8 4 57 14 57 4 0 8
-9 8 -19z m-209 -23 c-3 -8 -6 -5 -6 6 -1 11 2 17 5 13 3 -3 4 -12 1 -19z
m423 -21 c0 -5 -4 -5 -10 -2 -5 3 -10 14 -10 23 0 15 2 15 10 2 5 -8 10 -19
10 -23z m-150 19 c0 -3 -4 -8 -10 -11 -5 -3 -10 -1 -10 4 0 6 5 11 10 11 6 0
10 -2 10 -4z m50 -38 c0 -18 -2 -20 -9 -8 -6 8 -7 18 -5 22 9 14 14 9 14 -14z
m-335 2 c3 -5 1 -10 -4 -10 -6 0 -11 5 -11 10 0 6 2 10 4 10 3 0 8 -4 11 -10z
m191 -25 c-9 -14 -21 -23 -26 -20 -15 10 -12 28 4 22 9 -4 16 3 20 16 3 12 8
18 12 14 4 -3 -1 -18 -10 -32z m70 10 c-3 -20 -26 -44 -26 -27 0 7 4 12 10 12
5 0 7 7 4 15 -4 8 -2 15 4 15 6 0 9 -7 8 -15z m186 -90 c0 -33 -7 -73 -16 -89
l-15 -29 -6 37 c-4 20 -11 39 -16 42 -12 7 -11 61 1 69 6 4 8 11 4 16 -3 5 2
22 12 36 l17 27 10 -25 c5 -13 9 -51 9 -84z m-832 69 c0 -8 7 -14 15 -14 9 0
13 -7 9 -17 -2 -10 1 -8 7 5 13 24 34 31 25 7 -3 -9 0 -15 9 -15 8 0 15 -4 15
-9 0 -5 -10 -7 -22 -4 -19 5 -21 3 -10 -8 13 -14 17 -50 5 -48 -21 3 -24 -3
-12 -18 13 -16 12 -17 -3 -4 -16 12 -18 11 -18 -5 0 -16 -2 -16 -10 -4 -6 9
-5 17 3 22 7 4 12 13 12 20 1 7 6 12 13 11 20 -5 13 15 -7 22 -11 3 -22 14
-24 23 -3 10 -5 5 -6 -11 0 -16 3 -26 7 -23 4 2 8 -4 8 -15 0 -24 -5 -24 -22
-1 -12 15 -14 12 -12 -25 1 -23 5 -40 10 -37 12 8 9 -9 -5 -26 -19 -24 -36
-22 -29 3 5 20 4 20 -11 8 -11 -9 -17 -10 -17 -2 0 6 -5 10 -12 9 -6 -2 -14 6
-16 16 -3 15 0 17 13 12 15 -5 16 -4 5 9 -7 8 -16 12 -21 9 -5 -3 -9 -3 -9 0
0 2 -3 12 -7 22 -4 12 -3 15 5 10 7 -4 12 -1 13 6 0 10 2 10 6 1 6 -17 23 -17
23 0 0 9 9 12 28 9 27 -4 28 -2 29 40 1 37 0 39 -6 13 l-7 -30 -6 27 c-3 16 0
29 6 31 15 6 26 -2 26 -19z m690 6 c0 -5 -2 -10 -4 -10 -3 0 -8 5 -11 10 -3 6
-1 10 4 10 6 0 11 -4 11 -10z m-577 -27 c-7 -2 -19 -2 -25 0 -7 3 -2 5 12 5
14 0 19 -2 13 -5z m344 -39 c-3 -3 -12 -4 -19 -1 -8 3 -5 6 6 6 11 1 17 -2 13
-5z m223 -26 c0 -5 -7 -3 -15 6 -8 8 -15 18 -15 22 0 3 7 1 15 -6 8 -7 15 -17
15 -22z m-790 -58 c0 -5 -4 -10 -10 -10 -5 0 -10 5 -10 10 0 6 5 10 10 10 6 0
10 -4 10 -10z m371 -13 c-6 -8 -8 -17 -4 -20 3 -4 2 -7 -4 -7 -17 0 -22 12
-10 26 16 17 33 18 18 1z m-76 -17 c-3 -5 -14 -10 -23 -9 -14 0 -13 2 3 9 27
11 27 11 20 0z m-169 -20 c17 0 19 -16 2 -26 -7 -4 -8 -3 -4 4 4 7 2 12 -3 12
-6 0 -11 -7 -11 -15 0 -8 -8 -15 -18 -15 -10 0 -19 7 -19 15 0 9 6 14 14 11 8
-4 13 3 14 17 0 12 3 16 6 10 2 -7 11 -13 19 -13z m179 -18 c0 -20 -18 -18
-21 1 -1 10 3 16 9 14 7 -2 12 -9 12 -15z m45 -2 c0 -5 -4 -10 -10 -10 -5 0
-10 5 -10 10 0 6 5 10 10 10 6 0 10 -4 10 -10z m-243 -44 c-10 -6 -28 -19 -39
-29 -12 -9 -24 -15 -27 -12 -3 4 1 10 9 15 10 6 11 12 2 22 -9 12 -7 14 17 10
16 -2 32 1 36 8 4 6 10 8 14 4 3 -3 -2 -11 -12 -18z m32 12 c0 -7 2 -23 6 -36
6 -19 10 -20 23 -10 13 12 14 11 2 -9 -12 -19 -15 -20 -25 -6 -8 10 -14 12
-18 6 -4 -6 2 -20 12 -32 18 -21 20 -21 30 -4 6 10 11 13 11 7 0 -6 -7 -17
-15 -24 -17 -14 -21 -45 -5 -35 6 3 13 -1 16 -10 5 -12 9 -13 20 -4 12 10 13
9 8 -5 -7 -18 -34 -22 -34 -4 0 6 -3 9 -6 6 -3 -4 0 -16 6 -28 8 -15 8 -20 1
-16 -6 4 -11 1 -11 -7 0 -7 -7 -14 -15 -14 -11 0 -12 4 -6 10 7 7 4 16 -9 27
-11 10 -18 26 -16 43 3 26 -11 32 -27 12 -4 -5 -5 8 -1 30 4 22 7 48 6 58 0 9
3 15 7 13 4 -3 14 6 21 19 15 27 22 32 19 13z m166 -8 c3 -5 2 -10 -4 -10 -5
0 -13 5 -16 10 -3 6 -2 10 4 10 5 0 13 -4 16 -10z m66 -8 c-11 -4 -11 -6 0
-13 11 -7 11 -9 1 -9 -7 0 -11 -3 -9 -8 3 -4 -7 -7 -22 -7 -23 -1 -27 3 -23
19 3 11 7 15 10 8 6 -18 20 -14 27 8 4 12 11 17 18 13 8 -5 7 -8 -2 -11z m435
-44 c47 -34 78 -73 69 -88 -3 -5 -1 -11 4 -14 6 -4 5 -18 -2 -35 -6 -17 -14
-28 -18 -25 -4 2 -10 -3 -13 -12 -3 -8 -14 -14 -23 -13 -31 3 -36 -1 -23 -16
10 -12 10 -15 -3 -15 -8 0 -17 -9 -20 -20 -3 -11 -18 -25 -33 -31 -30 -11 -64
-42 -64 -58 0 -5 -10 -7 -22 -4 -22 4 -23 4 -4 -11 16 -13 17 -16 4 -16 -8 0
-21 -7 -28 -15 -7 -8 -16 -13 -20 -10 -5 3 -14 -8 -22 -25 -7 -17 -25 -34 -41
-40 -25 -8 -28 -14 -23 -35 6 -24 5 -25 -14 -15 -18 9 -20 8 -18 -14 1 -13 6
-22 10 -20 14 9 9 -7 -11 -34 -12 -17 -18 -42 -17 -67 1 -37 -1 -40 -28 -43
-26 -3 -28 -1 -24 22 3 14 1 23 -4 20 -5 -3 -7 11 -5 31 4 30 2 35 -11 30 -9
-3 -36 -9 -60 -12 -40 -5 -43 -8 -38 -29 9 -34 -8 -30 -45 11 -18 19 -36 32
-42 28 -6 -4 -8 0 -4 9 3 9 3 19 -1 23 -4 4 -7 10 -8 13 -3 26 -18 62 -25 62
-5 0 -9 6 -9 14 0 8 -6 16 -12 19 -10 3 -10 7 1 20 9 11 10 17 2 17 -6 0 -11
5 -11 10 0 6 9 10 19 10 11 0 23 9 26 20 7 21 25 28 25 10 0 -5 -4 -10 -10
-10 -5 0 -10 -4 -10 -10 0 -5 11 -10 25 -10 14 0 25 4 25 10 0 5 -6 7 -12 5
-8 -3 -14 4 -14 20 -2 28 10 31 46 10 29 -17 40 -18 40 -6 0 5 -13 14 -30 20
-38 13 -39 24 -1 18 34 -6 48 1 53 28 4 27 16 34 49 28 22 -3 28 -1 23 10 -3
9 3 16 15 20 12 3 21 1 21 -5 0 -5 5 -6 10 -3 8 5 7 11 -1 21 -9 11 -8 14 5
14 9 0 16 4 16 9 0 5 14 12 30 16 33 7 39 21 13 28 -12 3 -8 5 9 6 15 0 30 6
33 11 3 6 13 10 22 10 9 0 37 21 64 48 50 49 62 59 95 79 25 16 20 17 70 -19z
m-503 -8 c3 -11 1 -17 -4 -14 -14 8 -40 -16 -32 -29 3 -6 1 -7 -6 -3 -6 4 -9
12 -6 17 3 5 -1 6 -9 3 -9 -3 -13 -11 -10 -16 4 -6 -5 -2 -20 7 -31 21 -33 25
-6 20 11 -2 20 0 20 5 0 5 11 7 25 4 14 -2 25 -1 24 3 -5 29 16 31 24 3z
m-223 0 c0 -5 -4 -10 -10 -10 -5 0 -10 5 -10 10 0 6 5 10 10 10 6 0 10 -4 10
-10z m294 -16 c3 -8 2 -12 -4 -9 -6 3 -10 10 -10 16 0 14 7 11 14 -7z m-319
-2 c6 -4 12 -18 13 -32 1 -18 -1 -21 -8 -10 -5 8 -6 18 -4 22 3 4 -2 8 -10 8
-9 0 -16 5 -16 10 0 12 11 13 25 2z m45 -72 c0 -5 -4 -10 -10 -10 -5 0 -10 5
-10 10 0 6 5 10 10 10 6 0 10 -4 10 -10z m-33 -42 c-3 -8 -6 -5 -6 6 -1 11 2
17 5 13 3 -3 4 -12 1 -19z m33 2 c0 -5 -5 -10 -11 -10 -5 0 -7 5 -4 10 3 6 8
10 11 10 2 0 4 -4 4 -10z m1006 -137 c-10 -10 -19 5 -10 18 6 11 8 11 12 0 2
-7 1 -15 -2 -18z m416 -194 c13 -7 25 -11 28 -10 2 1 6 -3 9 -10 4 -12 -11
-10 -54 7 -11 4 6 -14 38 -41 32 -26 55 -50 52 -53 -3 -3 -13 2 -23 11 -10 10
-22 17 -26 17 -4 0 -21 9 -36 20 -16 11 -32 19 -37 18 -20 -6 -133 27 -133 39
0 10 10 12 38 7 20 -3 48 -1 62 4 29 11 49 9 82 -9z m-137 -49 c13 -6 15 -9 5
-9 -8 0 -22 4 -30 9 -18 12 -2 12 25 0z m85 -20 c0 -4 11 -12 25 -18 47 -22
105 -75 105 -97 0 -14 -3 -14 -30 2 -17 9 -32 25 -35 33 -6 18 -71 64 -106 75
-15 5 -18 9 -9 15 14 8 50 2 50 -10z m-1409 -33 c-6 -6 -11 -23 -11 -37 0 -19
-8 -29 -31 -39 -24 -10 -28 -16 -18 -23 11 -7 9 -8 -6 -6 -14 3 -19 10 -17 28
3 27 0 25 -18 -9 -8 -15 -8 -21 -1 -17 6 4 11 2 11 -3 0 -16 2 -23 16 -50 7
-14 10 -29 7 -34 -4 -6 0 -8 10 -4 11 4 14 2 11 -7 -8 -20 10 -27 30 -13 14
11 13 15 -12 42 -25 28 -38 55 -27 55 2 0 21 -17 41 -37 21 -21 34 -30 31 -20
-6 16 -5 16 18 1 13 -9 28 -13 33 -10 5 3 9 -1 9 -9 0 -8 -9 -15 -20 -15 -13
0 -17 -5 -14 -14 4 -10 1 -13 -9 -9 -7 3 -14 10 -14 17 -1 6 -9 1 -19 -11 -25
-30 -33 -29 -70 9 -30 31 -39 52 -23 61 4 2 2 2 -5 1 -17 -4 -44 42 -39 68 1
13 9 23 17 23 8 0 16 14 19 33 l5 33 23 -21 c12 -11 22 -17 22 -12 0 6 9 12
20 15 14 4 20 14 20 34 1 25 2 26 11 10 8 -14 8 -22 0 -30z m39 28 c0 -12 -19
-12 -23 0 -4 9 -1 12 9 8 7 -3 14 -7 14 -8z m-15 -55 c-3 -5 -12 -10 -18 -10
-7 0 -6 4 3 10 19 12 23 12 15 0z m159 -5 c22 -17 17 -29 -7 -19 -16 6 -32 34
-19 34 4 0 16 -7 26 -15z m26 -50 c0 -8 -4 -15 -10 -15 -5 0 -7 7 -4 15 4 8 8
15 10 15 2 0 4 -7 4 -15z m240 11 c0 -3 -4 -8 -10 -11 -5 -3 -10 -1 -10 4 0 6
5 11 10 11 6 0 10 -2 10 -4z m-326 -21 c6 -17 -9 -21 -19 -5 -4 6 -11 7 -17 4
-7 -4 -8 -2 -4 4 10 17 33 15 40 -3z m1461 -51 c15 -30 25 -58 22 -60 -3 -3
-8 3 -11 14 -4 11 -15 30 -26 42 -17 20 -28 60 -16 60 2 0 16 -25 31 -56z
m-1055 20 c0 -8 -4 -12 -10 -9 -5 3 -10 10 -10 16 0 5 5 9 10 9 6 0 10 -7 10
-16z m-288 -21 c13 -12 14 -20 6 -44 -11 -31 -23 -37 -32 -16 -3 6 -3 2 0 -10
3 -13 1 -31 -5 -40 -8 -13 -10 2 -9 59 1 79 3 82 40 51z m-152 -10 c0 -1 -10
-7 -21 -14 -13 -6 -19 -7 -15 -1 3 6 0 13 -6 15 -7 3 -1 5 15 4 15 -1 27 -2
27 -4z m35 -53 c3 -5 -1 -10 -9 -10 -8 0 -18 5 -21 10 -3 6 1 10 9 10 8 0 18
-4 21 -10z m130 -50 c-3 -5 -11 -10 -16 -10 -6 0 -7 5 -4 10 3 6 11 10 16 10
6 0 7 -4 4 -10z m-177 -15 c-10 -11 -48 -14 -48 -4 0 5 12 9 27 9 14 0 24 -2
21 -5z"/>
<path d="M360 1101 c0 -6 4 -13 10 -16 6 -3 7 1 4 9 -7 18 -14 21 -14 7z"/>
<path d="M600 860 c0 -5 7 -7 15 -4 8 4 15 8 15 10 0 2 -7 4 -15 4 -8 0 -15
-4 -15 -10z"/>
<path d="M485 730 c4 -6 11 -8 16 -5 14 9 11 15 -7 15 -8 0 -12 -5 -9 -10z"/>
<path d="M500 582 c0 -11 41 -34 48 -28 3 4 -3 13 -14 21 -21 16 -34 19 -34 7z"/>
<path d="M700 511 c0 -5 5 -13 10 -16 6 -3 10 -2 10 4 0 5 -4 13 -10 16 -5 3
-10 2 -10 -4z"/>
<path d="M245 500 c-3 -5 1 -10 9 -10 9 0 16 5 16 10 0 6 -4 10 -9 10 -6 0
-13 -4 -16 -10z"/>
<path d="M410 2649 c-22 -6 -20 -7 13 -8 38 -1 47 3 25 11 -7 3 -24 1 -38 -3z"/>
<path d="M713 2492 c10 -10 14 -23 10 -28 -4 -5 -1 -4 6 3 12 10 12 15 1 28
-7 8 -17 15 -23 15 -5 0 -3 -8 6 -18z"/>
<path d="M1081 2494 c0 -11 3 -14 6 -6 3 7 2 16 -1 19 -3 4 -6 -2 -5 -13z"/>
<path d="M457 2443 c4 -9 2 -14 -3 -11 -5 3 -14 0 -21 -7 -10 -11 -10 -15 0
-19 9 -5 9 -7 -1 -12 -9 -4 -5 -12 13 -26 14 -10 30 -16 36 -12 8 4 9 3 5 -4
-9 -14 3 -15 24 -2 12 7 10 11 -10 18 l-24 9 26 6 c25 7 48 37 27 37 -6 0 -7
6 -4 13 4 6 0 3 -9 -7 -8 -10 -13 -23 -10 -27 10 -16 -33 -9 -47 7 -12 15 -11
16 9 10 13 -5 22 -3 22 3 0 6 -4 11 -10 11 -5 0 -10 7 -10 15 0 8 -4 15 -10
15 -5 0 -6 -7 -3 -17z"/>
<path d="M390 2440 c0 -13 18 -22 24 -11 3 5 -1 11 -9 15 -8 3 -15 1 -15 -4z"/>
<path d="M557 2433 c-10 -9 -9 -23 1 -23 5 0 9 7 9 15 0 17 -1 18 -10 8z"/>
<path d="M610 2426 c0 -8 6 -18 13 -22 6 -4 8 -3 4 1 -4 5 3 15 15 22 l23 12
-27 1 c-18 0 -28 -5 -28 -14z"/>
<path d="M690 2424 c0 -17 22 -14 28 4 2 7 -3 12 -12 12 -9 0 -16 -7 -16 -16z"/>
<path d="M815 2415 c2 -27 15 -47 15 -26 0 8 6 11 16 7 9 -3 12 -2 9 5 -4 6
-14 8 -22 5 -11 -4 -13 -2 -10 9 4 8 2 17 -3 20 -4 3 -7 -6 -5 -20z"/>
<path d="M712 2384 c-7 -14 -19 -24 -30 -23 -31 3 -43 -1 -37 -11 4 -6 10 -8
15 -5 5 3 16 -2 24 -11 15 -15 21 -8 17 19 -2 13 11 7 31 -15 l20 -23 -7 25
c-3 14 -8 33 -10 44 -7 28 -11 28 -23 0z"/>
<path d="M763 2386 c0 -8 6 -12 14 -9 7 3 10 9 7 14 -8 14 -21 11 -21 -5z"/>
<path d="M431 2354 c0 -11 3 -14 6 -6 3 7 2 16 -1 19 -3 4 -6 -2 -5 -13z"/>
<path d="M555 2361 c-6 -11 9 -23 19 -14 9 9 7 23 -3 23 -6 0 -12 -4 -16 -9z"/>
<path d="M1190 2351 c0 -6 5 -13 10 -16 6 -3 10 1 10 9 0 9 -4 16 -10 16 -5 0
-10 -4 -10 -9z"/>
<path d="M523 2326 c4 -9 2 -16 -3 -16 -6 0 -9 -10 -9 -22 1 -18 2 -19 6 -5 3
12 11 16 24 12 16 -5 18 -3 10 16 -4 13 -14 25 -21 27 -9 3 -11 -1 -7 -12z"/>
<path d="M487 2309 c4 -16 8 -17 14 -7 13 19 11 28 -5 28 -9 0 -12 -7 -9 -21z"/>
<path d="M563 2303 c4 -3 1 -13 -6 -21 -10 -13 -9 -14 1 -8 9 6 12 3 10 -9 -2
-10 3 -20 11 -23 10 -3 12 0 8 12 -6 14 -3 16 14 11 20 -7 20 -6 4 19 -10 14
-24 26 -33 26 -8 0 -12 -3 -9 -7z"/>
<path d="M730 2299 c0 -5 5 -7 10 -4 6 3 10 8 10 11 0 2 -4 4 -10 4 -5 0 -10
-5 -10 -11z"/>
<path d="M1143 2234 c-3 -8 -1 -25 5 -37 10 -20 11 -18 11 16 1 39 -5 48 -16
21z"/>
<path d="M795 2220 c-3 -5 -1 -10 4 -10 6 0 11 5 11 10 0 6 -2 10 -4 10 -3 0
-8 -4 -11 -10z"/>
<path d="M730 2194 c0 -8 5 -12 10 -9 6 4 8 11 5 16 -9 14 -15 11 -15 -7z"/>
<path d="M663 2176 c0 -8 6 -12 14 -9 7 3 13 9 13 14 0 5 -6 9 -13 9 -8 0 -14
-6 -14 -14z"/>
<path d="M580 2170 c0 -5 5 -10 11 -10 5 0 7 5 4 10 -3 6 -8 10 -11 10 -2 0
-4 -4 -4 -10z"/>
<path d="M547 2163 c-10 -10 -8 -43 2 -43 5 0 7 10 3 23 -5 20 -4 21 11 8 15
-12 17 -12 11 3 -6 17 -16 20 -27 9z"/>
<path d="M580 2100 c-8 -5 -12 -12 -9 -15 4 -3 12 1 19 10 14 17 11 19 -10 5z"/>
<path d="M606 2085 c-3 -8 2 -19 13 -24 16 -9 17 -7 13 14 -5 28 -17 33 -26
10z"/>
<path d="M598 1956 c-2 -22 1 -37 8 -40 9 -3 11 6 8 32 -6 48 -11 50 -16 8z"/>
<path d="M633 1913 c0 -7 4 -10 9 -7 4 3 8 -1 8 -9 0 -10 7 -13 20 -10 11 3
20 10 20 15 0 6 -7 8 -14 5 -9 -4 -13 -1 -10 6 2 7 -3 13 -14 13 -10 0 -19 -6
-19 -13z"/>
<path d="M611 1874 c0 -11 3 -14 6 -6 3 7 2 16 -1 19 -3 4 -6 -2 -5 -13z"/>
<path d="M1985 1000 c-19 -8 -19 -9 3 -9 12 -1 22 4 22 9 0 6 -1 10 -2 9 -2 0
-12 -4 -23 -9z"/>
<path d="M2010 980 c-8 -5 -12 -12 -9 -15 4 -3 12 1 19 10 14 17 11 19 -10 5z"/>
<path d="M1968 963 c7 -3 16 -2 19 1 4 3 -2 6 -13 5 -11 0 -14 -3 -6 -6z"/>
<path d="M1965 880 c-3 -5 1 -10 10 -10 9 0 13 5 10 10 -3 6 -8 10 -10 10 -2
0 -7 -4 -10 -10z"/>
<path d="M1998 783 c7 -3 16 -2 19 1 4 3 -2 6 -13 5 -11 0 -14 -3 -6 -6z"/>
<path d="M2025 730 c-3 -6 1 -7 9 -4 18 7 21 14 7 14 -6 0 -13 -4 -16 -10z"/>
<path d="M2035 660 c-3 -6 1 -7 9 -4 18 7 21 14 7 14 -6 0 -13 -4 -16 -10z"/>
<path d="M2010 470 c0 -5 5 -10 11 -10 5 0 7 5 4 10 -3 6 -8 10 -11 10 -2 0
-4 -4 -4 -10z"/>
<path d="M1676 106 c7 -18 29 -21 39 -6 3 6 2 10 -4 10 -5 0 -17 3 -25 6 -12
5 -15 2 -10 -10z"/>
</g>
</svg>
