<?xml version="1.0" standalone="no"?>
<!DOCTYPE svg PUBLIC "-//W3C//DTD SVG 20010904//EN"
 "http://www.w3.org/TR/2001/REC-SVG-20010904/DTD/svg10.dtd">
<svg version="1.0" xmlns="http://www.w3.org/2000/svg"
 width="300.000000pt" height="300.000000pt" viewBox="0 0 300.000000 300.000000"
 preserveAspectRatio="xMidYMid meet">

<g transform="translate(0.000000,300.000000) scale(0.100000,-0.100000)"
fill="#000000" stroke="none">
<path d="M1085 2935 c1 -36 7 -71 13 -77 8 -8 7 -15 -4 -25 -25 -26 -18 -45
16 -38 26 6 30 3 36 -20 8 -33 -14 -115 -34 -123 -8 -3 -21 3 -29 14 -14 19
-14 19 -25 -1 -11 -19 -11 -19 -19 0 -5 14 -8 5 -8 -28 -1 -27 3 -46 8 -43 5
4 12 0 15 -6 5 -10 7 -10 12 0 3 6 12 12 20 12 17 0 20 -74 4 -114 -9 -25 -40
-37 -40 -17 0 6 -13 5 -32 -1 -33 -12 -33 -12 -8 -19 16 -4 19 -7 8 -8 -14 -1
-18 -10 -18 -41 0 -33 3 -40 19 -40 12 0 22 9 25 23 3 12 2 -21 0 -73 -8 -132
-10 -153 -18 -171 -4 -8 4 -47 18 -87 l24 -72 -37 -9 c-20 -6 -67 -17 -106
-25 -38 -9 -117 -40 -175 -69 -97 -48 -110 -52 -168 -50 -47 2 -61 -1 -55 -10
4 -7 -2 -5 -12 3 -17 14 -18 13 -12 -17 7 -38 -8 -45 -17 -9 -4 18 -11 23 -25
19 -25 -6 -159 23 -240 53 -35 14 -65 23 -65 22 -14 -31 -22 -68 -16 -68 5 0
4 -13 -1 -29 -5 -15 -9 -32 -7 -37 4 -11 -23 -77 -34 -85 -5 -3 -11 -21 -13
-39 -2 -18 -22 -56 -45 -85 l-40 -52 1 -179 c1 -165 2 -176 14 -136 8 23 17
75 20 115 5 53 14 82 33 112 25 38 27 39 30 15 2 -13 13 -35 23 -49 11 -13 16
-27 13 -30 -3 -3 -13 4 -21 17 -9 12 -19 22 -24 22 -13 0 -11 -34 3 -48 9 -9
10 -15 2 -20 -21 -13 -46 -85 -33 -93 6 -4 8 -12 4 -18 -3 -7 -6 -85 -5 -174
1 -89 1 -193 0 -232 -3 -155 1 -234 14 -265 12 -30 13 -24 12 76 -1 121 10
155 76 225 48 52 69 61 130 53 44 -6 49 -9 28 -15 -22 -6 -22 -7 -4 -8 25 -1
27 -27 4 -61 -28 -42 -58 -161 -61 -240 -3 -80 -2 -119 9 -325 4 -72 5 -154 2
-182 l-6 -53 192 0 191 0 7 43 c3 23 14 77 23 119 l17 78 39 0 39 0 -7 63
c-10 87 -57 304 -104 482 -45 168 -47 223 -9 345 13 41 22 111 26 189 5 83 11
126 19 128 7 3 29 -30 52 -79 21 -46 59 -111 84 -145 25 -33 43 -64 40 -67 -4
-3 -1 -6 5 -6 6 0 9 -6 6 -13 -3 -8 2 -19 10 -26 27 -23 -1 -81 -40 -81 -22 0
-24 -4 -24 -50 0 -28 7 -67 15 -88 9 -20 16 -61 15 -92 0 -30 5 -127 11 -215
6 -88 11 -233 12 -322 2 -89 6 -165 10 -169 4 -4 7 -27 7 -51 l0 -43 121 0
121 0 -5 28 c-4 15 -11 50 -16 77 -6 28 -13 70 -17 95 -3 25 -10 63 -16 85
-22 79 -39 191 -41 260 -2 62 1 75 23 101 31 38 83 69 131 78 35 6 37 5 73
-50 53 -79 78 -149 112 -313 8 -38 24 -5 23 49 0 73 -46 245 -85 318 -13 24
-21 48 -18 53 8 14 23 1 39 -34 8 -18 12 -22 10 -11 -3 12 -7 35 -9 50 -3 16
-8 38 -12 48 -7 18 -8 18 -15 -2 -9 -24 -17 -26 -38 -13 -11 7 -11 18 0 67 7
33 20 76 30 97 15 33 16 39 3 44 -24 9 -53 -26 -60 -76 -4 -25 -11 -57 -16
-70 -8 -22 -10 -22 -32 -7 -28 18 -32 15 -65 -55 -22 -48 -61 -92 -61 -70 0 7
16 47 36 89 32 67 37 89 42 173 5 107 -10 182 -33 158 -6 -8 -22 -50 -34 -94
-29 -105 -40 -132 -57 -139 -18 -7 -27 10 -16 31 6 10 24 67 41 127 30 107 49
142 107 199 26 27 27 30 11 42 -27 19 -20 29 8 11 21 -14 25 -14 25 -2 0 8
-11 28 -25 44 -37 44 -31 48 17 13 38 -28 43 -29 52 -14 7 13 4 20 -15 32 -13
9 -35 26 -49 39 l-25 23 34 -17 35 -17 -17 27 c-22 34 -13 33 19 -1 18 -19 28
-23 35 -16 8 8 3 16 -20 27 -40 21 -39 28 1 24 46 -4 51 26 7 41 -17 6 -57 28
-88 48 -31 21 -67 43 -81 50 -22 10 -23 11 -4 12 11 1 36 -11 55 -25 74 -55
150 -75 157 -41 2 10 -3 17 -11 17 -21 0 -41 26 -27 35 6 4 -8 19 -35 37 -25
16 -48 35 -52 41 -4 7 9 0 29 -15 20 -16 42 -28 48 -28 6 0 22 -11 35 -25 14
-13 25 -19 25 -12 0 7 -16 28 -35 46 -20 18 -33 36 -30 39 3 3 18 -7 33 -21
16 -15 30 -27 33 -27 15 0 4 53 -22 103 -33 64 -25 79 10 17 25 -44 31 -49 31
-22 0 9 -18 39 -40 66 -22 27 -39 51 -36 53 10 10 47 -20 63 -50 9 -18 18 -27
21 -19 4 14 -4 27 -56 91 -37 45 -26 57 13 15 14 -15 25 -22 25 -15 0 7 -11
23 -25 37 -29 29 -31 34 -9 34 30 0 7 25 -27 30 -21 3 -34 11 -34 20 -1 8 -9
40 -19 72 -14 44 -16 63 -8 90 13 41 22 112 24 198 1 37 8 71 15 78 7 7 13 37
13 65 0 29 3 143 6 255 l6 202 -90 0 -89 0 2 -65z m5 -1008 c37 -12 44 -20 38
-39 -5 -13 -57 12 -77 36 -16 19 -8 20 39 3z m-4 -59 c14 -17 15 -19 2 -10 -9
8 -29 17 -45 22 l-28 8 26 1 c15 1 34 -8 45 -21z m29 -60 c21 -18 -22 -6 -45
12 l-25 21 30 -13 c17 -6 34 -15 40 -20z m-878 1 c6 -21 7 -21 20 -4 14 21 27
13 38 -22 7 -26 -12 -32 -34 -10 -8 6 -11 7 -8 2 8 -15 -32 -12 -70 5 -34 15
-40 24 -24 34 5 3 12 -1 15 -10 4 -9 9 -14 13 -10 3 3 14 -1 24 -10 17 -16 18
-15 9 15 -6 20 -5 31 2 31 5 0 12 -10 15 -21z m311 -57 c10 -43 -1 -70 -12
-29 -7 26 -8 82 -2 76 3 -3 9 -24 14 -47z m532 28 c45 -23 53 -35 14 -20 -34
13 -46 13 -39 -2 4 -7 0 -5 -8 4 -8 10 -16 16 -19 13 -2 -3 -5 2 -5 10 0 20
10 19 57 -5z m-620 -40 c-14 -9 -40 -3 -40 9 0 16 14 20 33 10 15 -9 17 -13 7
-19z m120 -10 c12 -23 12 -24 -3 -11 -10 7 -17 20 -17 29 0 18 3 16 20 -18z
m541 -15 c27 -7 65 -32 58 -39 -9 -10 -106 47 -106 62 0 13 2 12 12 -1 6 -9
22 -18 36 -22z m189 -3 c0 -13 -3 -12 -15 4 -19 25 -19 40 0 24 8 -7 15 -20
15 -28z m-1023 -27 c16 -33 11 -63 -6 -36 -6 9 -11 10 -15 2 -4 -6 -4 -15 -1
-21 12 -20 -8 -10 -31 16 -27 29 -35 65 -9 44 8 -7 15 -19 15 -26 0 -8 5 -14
10 -14 13 0 12 10 -5 40 -8 14 -14 31 -15 38 0 24 40 -7 57 -43z m41 41 c5 -3
12 -19 14 -35 6 -39 -16 -35 -47 11 l-24 35 24 -2 c13 -2 28 -6 33 -9z m82 -1
c16 -19 1 -19 -24 0 -16 12 -17 15 -4 15 8 0 21 -7 28 -15z m-3 -28 c15 5 26
-14 13 -22 -6 -4 -17 -1 -25 5 -8 7 -15 9 -15 5 0 -4 -7 -2 -15 5 -8 7 -12 17
-9 22 4 5 13 3 22 -5 10 -8 22 -12 29 -10z m-217 -21 c0 -7 9 -28 19 -49 10
-20 15 -37 10 -37 -8 0 -59 99 -59 115 0 4 7 2 15 -5 8 -7 15 -18 15 -24z
m525 14 c-3 -5 -15 -10 -25 -10 -10 0 -22 5 -25 10 -4 6 7 10 25 10 18 0 29
-4 25 -10z m-229 -18 c-7 -12 -56 -22 -56 -11 0 8 52 29 59 23 1 -1 0 -7 -3
-12z m722 -32 c7 -11 9 -20 4 -20 -10 0 -32 22 -32 32 0 15 15 8 28 -12z
m-548 -35 c0 -17 -2 -17 -10 -5 -5 8 -10 24 -10 35 0 17 2 17 10 5 5 -8 10
-24 10 -35z m-290 20 c-1 -6 -10 -13 -21 -17 -17 -7 -18 -5 -9 13 11 20 33 23
30 4z m99 -4 c3 0 -4 -7 -15 -15 -18 -13 -33 -6 -34 15 0 5 32 5 49 0z m-149
-22 c0 -14 -16 -11 -29 5 -10 12 -8 13 8 9 12 -3 21 -9 21 -14z m-113 -11 c7
-5 21 -7 33 -3 13 4 22 1 26 -9 3 -9 11 -16 17 -16 7 0 7 4 -1 12 -15 15 -16
28 -2 28 6 0 16 -12 22 -26 10 -21 9 -27 -3 -35 -17 -11 -32 -12 -26 -1 2 4
-4 15 -15 25 -10 9 -18 13 -18 8 0 -6 5 -13 10 -16 15 -9 12 -25 -5 -25 -9 0
-20 11 -25 24 -4 13 -20 26 -34 30 -14 3 -26 11 -26 16 0 10 27 3 47 -12z
m443 -40 c30 -66 28 -68 -45 -68 -36 0 -65 2 -65 4 0 3 4 16 10 30 11 30 27
34 33 9 4 -20 6 -18 26 40 6 15 13 27 16 27 3 0 15 -19 25 -42z m495 32 c3 -6
-1 -7 -9 -4 -18 7 -21 14 -7 14 6 0 13 -4 16 -10z m-735 -10 c0 -5 -7 -10 -16
-10 -8 0 -12 5 -9 10 3 6 10 10 16 10 5 0 9 -4 9 -10z m276 -52 c4 -44 -3 -32
-20 37 -6 23 -5 27 5 18 6 -6 13 -31 15 -55z m-226 31 c0 -18 -2 -19 -15 -9
-8 7 -15 16 -15 21 0 5 7 9 15 9 9 0 15 -9 15 -21z m-226 -41 c17 -13 19 -19
9 -29 -11 -11 -13 -10 -13 3 0 9 -12 25 -27 36 -17 12 -23 24 -18 32 6 9 10 8
18 -6 6 -10 20 -26 31 -36z m937 25 c13 -16 12 -17 -3 -4 -10 7 -18 15 -18 17
0 8 8 3 21 -13z m-766 -7 c19 -8 35 -20 35 -26 0 -7 -9 -5 -22 4 -12 9 -33 16
-46 16 -13 0 -20 4 -17 10 8 13 9 13 50 -4z m-193 -55 c2 -17 0 -37 -4 -45
-11 -20 -48 -21 -48 -1 0 8 6 14 13 13 7 -2 13 10 15 30 4 40 18 42 24 3z
m171 -32 c8 -30 -10 -32 -50 -5 -30 20 -33 26 -20 32 9 3 17 13 17 22 0 21 46
-21 53 -49z m32 41 c3 -5 3 -15 -1 -21 -6 -11 -23 6 -24 24 0 10 18 9 25 -3z
m-282 -50 c6 -14 18 -33 26 -42 12 -16 12 -18 -1 -18 -15 0 -49 72 -47 100 0
13 1 13 6 0 2 -8 10 -26 16 -40z m477 10 c0 -5 -4 -10 -10 -10 -5 0 -10 5 -10
10 0 6 5 10 10 10 6 0 10 -4 10 -10z m-51 -17 c33 -19 37 -28 20 -38 -10 -7
-79 34 -79 48 0 12 27 8 59 -10z m-279 -5 c0 -10 3 -9 9 1 7 11 14 9 39 -9 17
-13 28 -28 25 -36 -7 -18 -18 -18 -33 1 -7 8 -25 15 -41 15 -32 0 -48 18 -28
31 20 12 29 11 29 -3z m180 -23 c0 -9 -9 -15 -21 -15 -18 0 -19 2 -9 15 7 8
16 15 21 15 5 0 9 -7 9 -15z m97 -69 c-12 -35 -64 -4 -74 45 l-6 33 42 -33
c23 -18 40 -38 38 -45z m-333 19 c4 -20 4 -40 1 -46 -10 -16 -34 22 -35 54 0
40 26 34 34 -8z m407 -140 c-21 -104 -29 -128 -30 -95 -1 71 16 183 36 231 28
70 26 20 -6 -136z m-183 143 c12 -16 21 -89 10 -82 -4 3 -8 12 -8 20 0 8 -15
28 -32 45 l-32 29 26 0 c14 0 30 -6 36 -12z m-136 -27 c-2 -23 -2 -23 23 -7
14 9 31 14 37 10 24 -15 48 -39 48 -47 0 -5 9 -22 21 -38 31 -43 11 -35 -38
16 -50 53 -71 57 -79 15 -7 -32 -21 -39 -30 -15 -4 8 -10 13 -14 10 -4 -2 -15
4 -25 15 -17 19 -17 20 2 20 11 0 23 -3 27 -7 3 -4 13 -8 21 -9 28 -4 -8 34
-38 40 -38 8 -24 28 16 24 27 -3 32 -7 29 -27z m-119 -20 c9 -22 24 -41 36
-44 13 -3 21 -13 21 -25 0 -18 -3 -19 -25 -9 -14 7 -25 16 -25 20 0 5 -4 6 -9
3 -5 -3 -18 10 -30 29 -11 19 -16 35 -11 35 5 0 14 -9 20 -21 7 -11 14 -18 17
-16 2 3 -3 19 -12 36 -8 17 -11 31 -6 31 5 0 16 -17 24 -39z m-39 -43 c9 -12
16 -30 16 -40 0 -9 9 -19 19 -23 10 -3 22 -16 25 -28 10 -40 6 -43 -14 -9 -11
17 -25 32 -32 32 -6 0 -2 -9 10 -20 15 -14 22 -32 22 -58 l0 -37 -20 40 c-11
22 -24 47 -29 55 -20 35 -41 92 -36 101 10 15 23 10 39 -13z m271 -87 c-10
-17 -29 1 -60 57 l-26 47 47 -46 c27 -28 44 -52 39 -58z m-299 2 c4 -19 17
-45 30 -58 24 -24 32 -69 15 -80 -5 -3 -13 0 -17 6 -4 8 -3 9 4 5 19 -12 14
14 -10 47 -21 29 -40 71 -55 122 -6 18 -4 18 10 6 9 -7 19 -29 23 -48z m160
33 c6 -13 8 -30 4 -36 -5 -8 -12 0 -19 21 -13 38 -13 39 -3 39 4 0 12 -11 18
-24z m89 -83 c-18 -13 -22 -12 -43 12 -12 15 -20 30 -17 35 3 5 1 11 -4 14 -5
3 -7 14 -4 25 4 16 11 12 46 -26 40 -44 41 -45 22 -60z m-231 -52 c4 -5 -5 -4
-19 2 -14 7 -25 16 -25 20 0 9 36 -9 44 -22z m-5 -33 c13 -13 17 -26 12 -32
-5 -6 -7 -19 -6 -28 2 -10 -1 -20 -6 -24 -5 -3 -9 3 -9 14 0 10 -9 27 -19 36
-11 10 -17 25 -14 37 7 25 17 24 42 -3z m188 16 c-3 -3 -12 -4 -19 -1 -8 3 -5
6 6 6 11 1 17 -2 13 -5z m-197 -117 c0 -20 -25 1 -28 24 -2 23 -2 23 13 5 8
-11 15 -24 15 -29z m223 -21 c17 -13 16 -15 -12 -21 -16 -3 -46 -3 -67 1 -34
6 -36 8 -19 20 24 18 75 17 98 0z m840 -101 c-3 -9 -8 -14 -10 -11 -3 3 -2 9
2 15 9 16 15 13 8 -4z m126 -106 l24 -44 -36 40 c-38 42 -46 60 -24 53 6 -3
23 -24 36 -49z"/>
<path d="M1651 2958 c-7 -24 -16 -126 -21 -228 -5 -102 -12 -212 -15 -245 -7
-59 -6 -62 49 -168 43 -81 58 -124 66 -176 5 -38 14 -81 20 -95 17 -46 11 -89
-22 -156 -26 -52 -32 -79 -34 -133 0 -37 -4 -70 -8 -74 -11 -11 6 -187 19
-203 7 -8 18 -26 25 -40 l13 -25 -23 20 -22 20 7 -45 c10 -71 13 -75 66 -120
39 -33 59 -61 90 -128 48 -104 64 -155 55 -177 -5 -14 -9 -15 -22 -5 -10 9
-18 10 -25 3 -14 -14 9 -111 32 -134 19 -19 18 -19 -11 -19 -27 0 -29 -2 -20
-25 5 -14 7 -25 4 -25 -4 0 -1 -7 6 -15 10 -12 10 -21 1 -43 -9 -22 -9 -35 3
-64 15 -36 17 -192 2 -216 -3 -5 -10 -52 -16 -103 -23 -215 -31 -268 -45 -303
l-15 -36 64 0 64 0 5 58 c21 246 25 359 17 431 -5 44 -7 120 -4 168 9 147 6
137 50 144 28 4 32 7 12 8 -50 2 -53 7 -51 74 2 34 4 73 5 87 3 34 -10 95 -32
158 -23 62 -6 74 24 17 11 -19 23 -35 28 -35 13 0 10 9 -22 55 -32 47 -35 55
-21 55 5 0 24 -24 42 -52 24 -39 34 -48 37 -35 2 10 -2 24 -8 32 -8 10 -9 15
-2 15 6 0 14 -9 17 -20 3 -11 13 -20 21 -20 20 0 18 7 -15 49 -48 61 -85 147
-60 139 15 -5 46 -55 81 -131 19 -41 48 -64 48 -38 0 18 -92 206 -110 226 -16
18 -16 22 -3 34 12 11 21 6 59 -35 24 -27 44 -53 44 -59 0 -6 16 -30 35 -52
19 -23 35 -46 35 -52 0 -6 11 -18 24 -26 15 -10 34 -43 51 -88 36 -96 44 -216
21 -320 -16 -72 -16 -80 3 -196 12 -66 41 -205 67 -308 25 -104 48 -209 51
-235 l6 -48 128 0 128 0 -5 118 c-3 64 -9 155 -15 201 -7 58 -7 87 0 94 14 14
14 57 1 57 -5 0 -10 -14 -10 -31 0 -17 -4 -28 -10 -24 -5 3 -10 14 -10 24 0
10 -7 31 -15 47 -8 16 -17 48 -21 71 -3 24 -10 43 -14 43 -18 0 -27 115 -21
255 2 41 8 63 20 72 11 9 12 12 3 13 -7 0 -10 5 -7 11 4 6 -1 16 -11 24 -11 7
-16 16 -12 20 4 4 15 -3 25 -14 24 -28 43 -27 43 4 0 32 -37 94 -42 71 -2 -13
-13 -9 -57 21 -29 21 -62 43 -73 49 -35 21 -43 33 -25 40 11 4 30 -4 53 -22
45 -36 87 -64 96 -64 4 0 5 8 2 17 -4 10 10 0 30 -22 47 -53 46 -31 -1 31
l-37 49 42 -38 c24 -21 47 -35 52 -32 12 7 4 -198 -11 -294 -12 -74 -2 -126
42 -234 16 -37 31 -84 35 -103 8 -41 31 -40 26 1 -2 15 -20 71 -39 124 -38
104 -36 83 -30 391 1 52 -1 119 -5 148 -4 30 -3 50 2 47 17 -10 23 18 7 30
-25 18 -21 38 6 31 19 -4 28 2 51 38 24 38 60 66 85 66 5 0 15 -24 21 -53 7
-28 24 -79 38 -112 21 -50 25 -77 26 -166 l1 -106 -37 -48 c-21 -27 -38 -54
-38 -62 0 -7 -4 -13 -10 -13 -5 0 -10 -11 -10 -25 0 -14 5 -25 10 -25 6 0 10
7 10 15 0 8 15 34 33 58 17 24 37 53 44 63 11 17 12 17 12 -8 1 -16 5 -28 11
-28 5 0 6 -8 3 -17 -5 -13 -2 -15 11 -10 15 6 17 3 13 -13 -4 -16 0 -20 18
-20 26 0 34 24 42 135 5 75 -10 149 -30 142 -7 -2 -13 -23 -15 -48 -4 -66 -11
-89 -28 -89 -13 0 -15 10 -9 63 4 44 1 77 -11 117 -9 30 -16 71 -15 90 0 19 1
50 2 69 0 19 -11 71 -25 115 -14 45 -28 98 -31 118 -3 21 -9 37 -13 37 -19 -3
-23 2 -13 15 11 13 10 110 -1 121 -7 7 -63 -12 -61 -21 1 -5 -14 -9 -33 -8
-19 1 -31 -2 -28 -7 9 -15 -13 -10 -26 6 -15 18 -32 19 -82 5 -29 -8 -36 -15
-31 -28 4 -13 0 -11 -16 6 -12 12 -30 22 -41 22 -10 0 -22 5 -25 10 -3 6 -16
10 -27 10 -20 0 -21 -1 -3 -20 10 -11 13 -20 7 -20 -6 0 -14 4 -17 10 -8 12
-69 42 -81 38 -5 -1 -19 1 -31 6 -12 4 -31 2 -42 -3 -14 -8 -22 -7 -31 4 -7 8
-21 15 -31 15 -16 0 -15 -3 7 -25 32 -32 64 -107 57 -134 -5 -21 -23 -29 -23
-11 0 6 -10 14 -23 19 -18 7 -26 22 -36 65 -7 31 -17 54 -22 50 -5 -3 -9 -2
-8 3 3 19 -2 31 -17 37 -48 18 -208 46 -266 47 -67 1 -68 1 -68 27 0 15 -5 92
-11 172 -6 80 -13 217 -14 305 -2 88 -8 191 -14 229 -7 38 -11 132 -10 208 1
133 0 140 -24 171 -23 30 -37 68 -52 140 -8 39 -21 33 -34 -15z m676 -1358 c8
-25 20 -51 25 -57 8 -10 5 -13 -12 -13 -17 0 -20 -3 -12 -13 7 -8 7 -17 -2
-30 -14 -19 -36 -23 -36 -7 0 6 5 10 12 10 9 0 9 3 1 11 -6 6 -9 18 -6 25 3 8
1 20 -4 27 -6 6 -13 23 -16 37 l-6 25 19 -25 c11 -14 20 -31 20 -37 0 -7 5
-13 10 -13 16 0 11 22 -15 68 -20 35 -21 43 -9 40 9 -2 23 -23 31 -48z m59 13
c-8 -8 -36 5 -36 17 0 7 6 7 21 0 11 -7 18 -14 15 -17z m211 -19 c3 -9 12 -13
22 -9 11 4 13 3 5 -5 -6 -6 -18 -8 -27 -5 -18 7 -31 35 -16 35 5 0 12 -7 16
-16z m128 6 c4 -6 11 -8 16 -4 5 3 9 2 8 -3 -1 -4 1 -16 6 -26 6 -14 10 -15
21 -6 11 9 14 8 14 -3 0 -24 -12 -29 -32 -11 -16 14 -18 15 -18 0 0 -9 -5 -19
-10 -22 -7 -4 -9 2 -5 17 4 14 0 31 -10 43 l-15 20 6 -20 c6 -16 4 -18 -6 -8
-7 6 -9 16 -6 22 9 14 23 14 31 1z m-565 -31 c0 -21 44 -66 78 -80 33 -13 27
-29 -11 -29 -36 0 -57 15 -57 41 0 9 -7 22 -16 30 -8 7 -13 21 -11 31 3 11 0
18 -9 18 -8 0 -14 4 -14 9 0 5 9 7 20 4 11 -3 20 -14 20 -24z m305 1 c3 -5 -2
-10 -12 -11 -14 0 -13 -2 5 -10 34 -13 74 -46 64 -52 -4 -3 -32 3 -62 13 -30
10 -49 19 -41 19 9 1 11 9 7 26 -5 20 -3 25 13 25 11 0 23 -4 26 -10z m49 -11
c-3 -5 0 -9 5 -9 6 0 11 -5 11 -10 0 -7 -6 -7 -20 0 -23 12 -28 42 -5 34 8 -4
12 -10 9 -15z m-373 -58 c3 -16 16 -42 28 -57 23 -29 22 -40 -3 -31 -15 6 -62
87 -51 87 3 0 -7 17 -22 37 l-28 38 35 -22 c23 -14 37 -33 41 -52z m437 47
c-6 -18 -28 -21 -28 -4 0 9 7 16 16 16 9 0 14 -5 12 -12z m66 -13 c-4 -8 -11
-15 -16 -15 -6 0 -5 6 2 15 7 8 14 15 16 15 2 0 1 -7 -2 -15z m31 -45 c-4 -7
-18 -10 -31 -7 -28 5 -33 -5 -41 -87 -3 -34 -11 -64 -17 -68 -17 -12 -146 -9
-146 2 0 6 -5 10 -12 10 -21 0 -48 33 -48 58 0 14 -7 34 -17 44 -9 10 -12 18
-6 18 17 0 63 -40 63 -55 0 -19 37 -61 46 -52 4 4 2 13 -4 19 -21 21 -13 31
12 15 22 -15 25 -15 42 4 12 13 20 16 25 8 4 -8 9 -4 13 9 11 34 69 91 96 94
30 5 34 3 25 -12z m-585 -5 c22 -27 5 -34 -23 -9 -24 21 -25 24 -9 24 11 0 25
-7 32 -15z m348 -14 c17 -14 32 -29 32 -35 0 -5 8 -19 18 -30 10 -12 4 -9 -16
7 -19 15 -37 27 -42 27 -10 0 -60 44 -60 52 0 13 38 1 68 -21z m132 25 c0 -2
-7 -6 -15 -10 -8 -3 -15 -1 -15 4 0 6 7 10 15 10 8 0 15 -2 15 -4z m-53 -53
c11 -27 -4 -22 -38 13 l-34 35 33 -17 c19 -9 36 -23 39 -31z m226 -17 c26 -24
47 -49 47 -55 0 -20 -59 -41 -115 -41 -53 0 -55 1 -55 28 0 86 11 104 65 111
6 0 31 -19 58 -43z m98 -39 c16 -62 6 -52 -18 16 -14 40 -16 55 -7 42 8 -11
19 -37 25 -58z m-737 -6 c15 -23 31 -40 33 -37 3 3 -2 17 -11 30 -9 14 -16 31
-16 38 0 6 13 -8 28 -33 16 -24 51 -62 78 -84 27 -21 51 -42 54 -46 3 -3 14
-11 25 -17 12 -7 14 -12 6 -12 -7 0 -41 17 -75 37 -60 36 -112 84 -171 160
-29 36 -29 37 -5 22 14 -9 38 -35 54 -58z m168 47 c21 -21 22 -23 4 -26 -10
-2 -30 7 -45 22 -25 26 -25 26 -3 26 12 0 32 -10 44 -22z m65 4 c6 -4 13 -20
15 -37 2 -21 13 -36 35 -50 18 -11 31 -26 30 -34 -1 -8 12 -18 28 -24 17 -5
43 -21 58 -33 16 -13 37 -24 47 -24 9 0 23 -7 30 -15 17 -20 -1 -19 -40 3 -23
12 -34 14 -37 5 -3 -8 -13 -8 -38 3 -19 8 -45 14 -57 14 -28 0 -55 16 -45 27
7 6 42 -4 127 -35 13 -5 13 -3 1 11 -7 9 -19 17 -27 17 -22 0 -64 22 -64 34 0
6 -19 24 -42 40 -23 17 -36 32 -30 34 9 3 6 14 -9 38 -20 33 -12 45 18 26z
m-135 -71 c15 -14 28 -29 28 -34 0 -13 -59 23 -70 42 -21 40 -5 37 42 -8z m72
-21 c10 0 39 -12 64 -26 33 -19 41 -29 31 -35 -9 -5 -21 -2 -34 10 -11 10 -34
23 -52 30 -18 7 -38 21 -45 30 -10 13 -10 14 2 4 8 -7 23 -13 34 -13z m44 -63
c13 -11 16 -27 4 -27 -4 0 -23 14 -42 30 l-35 30 30 -12 c17 -6 36 -16 43 -21z
m362 13 c0 -5 -7 -7 -15 -4 -8 4 -15 8 -15 10 0 2 7 4 15 4 8 0 15 -4 15 -10z
m-688 -70 l21 -35 -24 28 c-13 15 -37 39 -54 53 l-30 26 33 -19 c18 -10 43
-34 54 -53z m687 45 c6 3 11 0 11 -8 0 -9 -9 -12 -30 -9 -22 3 -30 10 -30 25
0 19 1 19 19 3 11 -10 25 -15 30 -11z m-72 -20 c17 -25 8 -32 -15 -12 -10 10
-27 17 -38 17 -11 0 -29 6 -39 14 -16 12 -13 12 30 6 28 -4 54 -15 62 -25z
m-127 -45 c18 -9 25 -10 28 -1 5 16 72 -23 97 -57 l19 -27 -24 17 c-14 10 -38
25 -53 34 l-29 16 7 -32 7 -32 -43 27 c-24 14 -60 33 -79 42 -44 19 -47 22
-31 32 15 10 65 0 101 -19z m147 -15 c9 -24 -1 -27 -15 -5 -8 13 -8 20 -2 20
6 0 13 -7 17 -15z m-77 -165 c8 -5 11 -10 5 -10 -5 0 -17 5 -25 10 -8 5 -10
10 -5 10 6 0 17 -5 25 -10z m-583 -216 c-3 -3 -12 -4 -19 -1 -8 3 -5 6 6 6 11
1 17 -2 13 -5z"/>
<path d="M2340 2985 c0 -11 7 -40 15 -65 l14 -45 -6 55 c-5 53 -23 95 -23 55z"/>
<path d="M2361 2824 c0 -11 3 -14 6 -6 3 7 2 16 -1 19 -3 4 -6 -2 -5 -13z"/>
<path d="M2625 2636 c-13 -20 -14 -36 -7 -93 5 -37 8 -138 6 -223 -3 -146 -2
-159 20 -205 l23 -50 8 29 c5 18 3 48 -4 75 -13 45 -26 260 -26 414 0 42 -1
77 -2 77 -2 0 -10 -11 -18 -24z"/>
<path d="M2697 2003 c4 -10 12 -28 19 -41 9 -18 13 -20 17 -7 9 22 -10 65 -27
65 -11 0 -13 -6 -9 -17z"/>
<path d="M2741 1853 c-1 -12 4 -25 9 -28 12 -7 12 2 0 30 -8 19 -9 19 -9 -2z"/>
<path d="M2195 1624 c13 -19 29 -51 35 -69 13 -38 36 -50 24 -12 -11 36 -54
105 -69 111 -8 3 -4 -9 10 -30z"/>
<path d="M2100 1266 c21 -43 37 -83 34 -88 -3 -4 2 -8 10 -8 27 0 25 15 -14
75 -63 99 -72 104 -30 21z"/>
<path d="M1576 1180 c8 -43 14 -51 14 -19 0 13 -5 31 -10 39 -7 11 -8 5 -4
-20z"/>
<path d="M1540 1170 c0 -8 6 -46 14 -85 8 -38 12 -90 11 -115 -2 -25 1 -50 6
-57 7 -7 6 -14 -1 -18 -16 -10 -17 -8 -28 80 l-9 80 -2 -72 c-1 -54 -5 -74
-17 -81 -13 -7 -10 -12 19 -25 19 -10 52 -17 72 -17 30 0 35 3 31 18 -3 9 -10
37 -16 62 -7 25 -15 47 -19 50 -4 3 -15 43 -24 90 -15 76 -37 129 -37 90z"/>
<path d="M1710 1091 c0 -99 1 -100 73 -68 41 18 42 27 11 89 -12 24 -63 68
-78 68 -3 0 -6 -40 -6 -89z m43 -7 c8 -8 -3 -34 -14 -34 -5 0 -9 9 -9 20 0 19
11 26 23 14z"/>
<path d="M1220 1045 c-7 -8 -9 -22 -6 -31 5 -13 9 -14 21 -4 17 14 20 36 6 44
-5 3 -14 -1 -21 -9z"/>
<path d="M1346 965 c-3 -9 -6 -22 -5 -28 0 -7 5 -1 10 12 5 13 8 26 5 28 -2 2
-6 -3 -10 -12z"/>
<path d="M1672 872 c-8 -24 -5 -32 27 -69 25 -28 51 -45 80 -53 24 -6 45 -9
48 -6 3 2 -15 25 -40 50 -25 24 -53 58 -63 75 -23 38 -39 39 -52 3z"/>
<path d="M2571 644 c0 -11 3 -14 6 -6 3 7 2 16 -1 19 -3 4 -6 -2 -5 -13z"/>
</g>
</svg>
