<?xml version="1.0" standalone="no"?>
<!DOCTYPE svg PUBLIC "-//W3C//DTD SVG 20010904//EN"
 "http://www.w3.org/TR/2001/REC-SVG-20010904/DTD/svg10.dtd">
<svg version="1.0" xmlns="http://www.w3.org/2000/svg"
 width="202.000000pt" height="300.000000pt" viewBox="0 0 202.000000 300.000000"
 preserveAspectRatio="xMidYMid meet">

<g transform="translate(0.000000,300.000000) scale(0.100000,-0.100000)"
fill="#000000" stroke="none">
<path d="M1596 2969 c-15 -12 -50 -33 -78 -48 -29 -14 -58 -36 -66 -49 -13
-20 -13 -22 1 -17 19 8 29 -8 21 -30 -4 -10 -14 -15 -25 -12 -32 8 -1 -38 38
-57 25 -12 33 -21 29 -33 -5 -13 -4 -14 8 -4 17 14 62 7 113 -17 37 -18 36
-16 24 -59 -6 -20 -6 -35 0 -38 5 -4 9 5 9 19 0 44 8 52 49 48 51 -5 71 22 71
95 0 47 -5 58 -51 120 -83 110 -97 118 -143 82z m-56 -59 c0 -5 -4 -10 -10
-10 -5 0 -10 5 -10 10 0 6 5 10 10 10 6 0 10 -4 10 -10z m137 -42 c-3 -8 -6
-5 -6 6 -1 11 2 17 5 13 3 -3 4 -12 1 -19z m-77 -43 c0 -8 -9 -19 -20 -25 -28
-15 -41 17 -15 36 20 15 35 10 35 -11z m125 -78 c0 -26 -20 -25 -23 2 -3 16 1
22 10 19 7 -3 13 -12 13 -21z"/>
<path d="M901 2834 c-29 -8 -90 -33 -135 -56 -110 -58 -200 -148 -314 -318
-50 -74 -104 -151 -121 -170 -26 -31 -28 -36 -15 -54 23 -33 18 -111 -8 -136
-29 -27 -96 -27 -130 -1 l-25 20 -51 -52 c-28 -29 -56 -65 -61 -80 -16 -40
-13 -109 5 -132 14 -19 15 -19 12 5 -5 41 50 38 177 -10 59 -22 109 -39 111
-37 3 2 -23 14 -56 26 -56 21 -61 25 -58 49 4 35 59 72 109 72 29 0 42 -6 58
-26 38 -48 22 -141 -22 -129 -61 17 20 -17 123 -51 63 -20 117 -39 120 -42 3
-2 -2 -9 -11 -15 -13 -10 -14 -15 -4 -24 10 -9 15 -6 24 14 11 25 14 25 79 18
100 -11 283 -20 317 -17 24 3 34 12 50 45 38 79 158 112 246 67 46 -24 86 -79
66 -92 -17 -11 11 -10 70 2 26 5 59 12 73 14 41 7 150 46 203 72 28 15 46 20
42 12 -3 -7 0 -5 8 5 8 9 19 17 24 17 6 0 36 24 67 54 58 56 95 121 96 167 0
36 -44 120 -82 155 -30 27 -29 26 5 -15 20 -25 37 -48 37 -51 0 -17 -43 -43
-72 -43 -59 0 -81 81 -34 128 l25 25 -67 57 c-111 97 -112 98 -114 145 -1 36
-2 38 -5 11 l-4 -32 -28 32 c-15 18 -50 62 -78 98 -143 185 -292 289 -414 289
-36 0 -37 -1 -27 -27 7 -19 7 -37 -1 -55 -20 -52 -104 -48 -129 5 -12 24 -11
32 2 53 16 23 16 24 -6 23 -13 0 -47 -7 -77 -15z m-110 -144 c79 -22 119 -109
82 -180 -44 -86 -204 -96 -241 -15 -29 63 -2 136 67 182 38 26 43 27 92 13z
m460 -99 c22 -22 29 -39 29 -68 0 -99 -116 -161 -184 -98 -22 20 -26 32 -26
78 0 47 4 60 29 86 24 26 36 31 76 31 38 0 52 -5 76 -29z m293 -133 c33 -47
11 -108 -38 -108 -41 0 -74 56 -54 93 22 43 67 50 92 15z m-905 -164 c27 -35
26 -59 -4 -89 -42 -43 -94 -26 -110 35 -4 18 0 34 15 53 29 36 71 36 99 1z
m535 -126 c37 -52 2 -126 -52 -113 -34 8 -49 23 -57 57 -5 21 -1 33 19 52 31
32 70 33 90 4z m397 -74 c41 -37 42 -123 1 -174 -21 -26 -82 -36 -121 -20 -41
16 -67 83 -54 137 17 74 119 107 174 57z m-721 -59 c42 -21 63 -68 57 -122 -5
-50 -28 -80 -75 -100 -44 -18 -93 -8 -126 26 -94 98 25 258 144 196z"/>
<path d="M1547 2680 c10 -11 19 -20 21 -20 1 0 -2 9 -8 20 -6 11 -15 20 -20
20 -6 0 -2 -9 7 -20z"/>
<path d="M1500 2668 c0 -19 2 -20 10 -8 13 19 13 30 0 30 -5 0 -10 -10 -10
-22z"/>
<path d="M199 2153 l-24 -28 28 24 c15 14 27 26 27 28 0 8 -8 1 -31 -24z"/>
<path d="M1550 1699 c0 -5 5 -7 10 -4 6 3 10 8 10 11 0 2 -4 4 -10 4 -5 0 -10
-5 -10 -11z"/>
<path d="M1308 1693 c12 -2 32 -2 45 0 12 2 2 4 -23 4 -25 0 -35 -2 -22 -4z"/>
<path d="M1511 1664 c0 -11 3 -14 6 -6 3 7 2 16 -1 19 -3 4 -6 -2 -5 -13z"/>
<path d="M1485 1630 c16 -19 33 -39 37 -44 5 -6 8 1 8 14 0 13 -3 20 -7 17 -4
-4 -20 5 -37 20 l-31 28 30 -35z"/>
<path d="M1294 1635 c-4 -8 -10 -12 -15 -9 -5 3 -6 -2 -3 -10 7 -20 20 -13 27
14 6 23 -1 27 -9 5z"/>
<path d="M844 1605 c-10 -8 -14 -14 -9 -15 15 0 40 18 34 24 -3 3 -14 -1 -25
-9z"/>
<path d="M910 1606 c0 -2 8 -10 18 -17 15 -13 16 -12 3 4 -13 16 -21 21 -21
13z"/>
<path d="M1226 1595 c-9 -26 -7 -32 5 -12 6 10 9 21 6 23 -2 3 -7 -2 -11 -11z"/>
<path d="M699 1583 c-8 -9 -9 -14 -2 -10 6 4 14 1 16 -5 3 -7 6 -3 6 10 1 26
-2 27 -20 5z"/>
<path d="M1560 1581 c0 -25 6 -27 13 -6 4 8 2 17 -3 20 -6 4 -10 -3 -10 -14z"/>
<path d="M616 1556 c-10 -19 -32 -47 -48 -63 l-30 -28 6 25 c6 23 6 23 -9 -3
-9 -16 -14 -31 -11 -35 3 -3 6 0 6 7 0 7 4 10 9 7 4 -3 16 3 26 14 29 32 37
24 31 -32 -3 -38 -3 -44 3 -23 5 17 9 48 10 69 0 22 8 47 17 57 9 10 14 23 12
29 -2 6 -12 -5 -22 -24z"/>
<path d="M876 1578 c3 -5 10 -6 15 -3 13 9 11 12 -6 12 -8 0 -12 -4 -9 -9z"/>
<path d="M1588 1584 c-4 -5 0 -18 8 -29 15 -20 17 -12 5 19 -4 11 -10 15 -13
10z"/>
<path d="M668 1543 c-11 -12 -13 -25 -8 -38 8 -19 9 -19 9 3 1 20 6 22 69 23
64 1 65 2 22 9 -24 4 -53 5 -64 2 -13 -3 -17 -1 -12 6 11 18 1 14 -16 -5z"/>
<path d="M748 1553 c7 -3 16 -2 19 1 4 3 -2 6 -13 5 -11 0 -14 -3 -6 -6z"/>
<path d="M848 1533 l33 -4 -3 -145 c-2 -79 0 -144 5 -144 4 0 7 65 7 145 l0
145 168 3 c159 2 158 3 -38 3 -113 1 -190 -1 -172 -3z"/>
<path d="M1243 1533 c9 -2 23 -2 30 0 6 3 -1 5 -18 5 -16 0 -22 -2 -12 -5z"/>
<path d="M1305 1298 l0 -242 -205 0 -205 -1 -6 90 -5 90 -2 -86 c-2 -102 3
-99 -139 -99 l-92 0 -4 53 -3 52 -2 -57 -2 -58 100 0 100 0 0 -34 c0 -19 5
-38 11 -41 5 -4 122 -4 259 0 l249 8 3 36 3 36 60 3 c104 4 105 5 103 65 l-2
52 -3 -46 c-4 -45 -5 -47 -41 -53 -20 -3 -65 -6 -99 -6 l-63 0 0 240 c0 132
-3 240 -7 240 -5 0 -8 -109 -8 -242z"/>
<path d="M1524 1380 c0 -91 2 -128 3 -82 2 45 2 119 0 165 -1 45 -3 8 -3 -83z"/>
<path d="M621 1514 c0 -11 3 -14 6 -6 3 7 2 16 -1 19 -3 4 -6 -2 -5 -13z"/>
<path d="M1563 1485 c0 -22 2 -30 4 -17 2 12 2 30 0 40 -3 9 -5 -1 -4 -23z"/>
<path d="M920 1440 l0 -70 63 0 c105 0 107 2 107 76 l0 64 -85 0 -85 0 0 -70z
m120 31 c0 -5 -7 -14 -15 -21 -8 -7 -15 -19 -15 -26 0 -17 -10 -17 -32 0 -10
7 -18 23 -18 35 0 18 6 21 40 21 22 0 40 -4 40 -9z"/>
<path d="M1110 1446 c0 -36 3 -67 8 -69 4 -3 42 -2 85 0 l77 6 0 63 0 64 -85
0 -85 0 0 -64z m135 -2 c0 -37 -1 -39 -37 -41 -30 -3 -38 1 -45 19 -14 42 -10
53 27 59 51 9 55 6 55 -37z"/>
<path d="M654 1310 c0 -69 1 -97 3 -62 2 34 2 90 0 125 -2 34 -3 6 -3 -63z"/>
<path d="M1572 1410 c0 -14 2 -19 5 -12 2 6 2 18 0 25 -3 6 -5 1 -5 -13z"/>
<path d="M582 1370 c0 -14 2 -19 5 -12 2 6 2 18 0 25 -3 6 -5 1 -5 -13z"/>
<path d="M927 1353 c-4 -3 -7 -68 -7 -144 l0 -138 28 -3 c15 -2 53 -1 85 0
l57 4 0 144 0 144 -78 0 c-43 0 -82 -3 -85 -7z m38 -43 c-4 -7 3 -8 22 -4 25
7 27 6 14 -10 -21 -25 -8 -29 17 -6 12 12 22 19 23 18 0 -2 3 -27 6 -57 4 -50
2 -56 -23 -76 -26 -21 -27 -53 -1 -39 7 3 1 -3 -13 -15 -23 -18 -26 -18 -32
-3 -3 9 -4 35 -1 57 7 46 -6 41 -17 -7 -7 -31 -8 -30 -10 17 -1 28 -3 59 -5
69 -2 11 -1 25 3 30 4 6 7 14 8 19 3 15 4 17 10 17 3 0 2 -5 -1 -10z"/>
<path d="M985 1130 c3 -5 8 -10 11 -10 2 0 4 5 4 10 0 6 -5 10 -11 10 -5 0 -7
-4 -4 -10z"/>
<path d="M1110 1261 c0 -54 3 -118 6 -142 l6 -44 79 3 79 4 0 139 0 139 -85 0
-85 0 0 -99z m126 44 c-3 -8 0 -15 5 -15 8 0 9 -23 5 -72 -8 -82 -11 -88 -34
-88 -14 0 -14 -2 -3 -9 10 -7 7 -9 -12 -8 -27 2 -39 17 -14 17 7 0 22 7 33 15
17 13 16 14 -17 8 -36 -5 -37 -5 -44 35 -4 23 -2 49 4 60 6 11 7 22 4 26 -3 3
-1 6 5 6 7 0 12 6 12 14 0 8 12 17 28 19 15 2 29 5 31 6 2 0 1 -6 -3 -14z"/>
<path d="M1581 1344 c0 -11 3 -14 6 -6 3 7 2 16 -1 19 -3 4 -6 -2 -5 -13z"/>
<path d="M571 1304 c0 -11 3 -14 6 -6 3 7 2 16 -1 19 -3 4 -6 -2 -5 -13z"/>
<path d="M1601 1254 c0 -11 3 -14 6 -6 3 7 2 16 -1 19 -3 4 -6 -2 -5 -13z"/>
<path d="M1008 889 c-63 -22 -133 -79 -161 -130 l-19 -34 27 33 c14 17 32 32
40 32 7 0 18 6 24 14 7 8 27 22 46 31 19 9 35 22 35 29 0 8 23 20 53 29 28 8
43 15 32 15 -11 0 -46 -8 -77 -19z"/>
<path d="M1182 894 c69 -16 132 -46 173 -82 23 -20 21 -17 -6 11 -38 41 -146
88 -197 86 -17 0 -5 -6 30 -15z"/>
<path d="M1721 864 c0 -11 3 -14 6 -6 3 7 2 16 -1 19 -3 4 -6 -2 -5 -13z"/>
<path d="M426 825 c-3 -9 -6 -22 -5 -28 0 -7 5 -1 10 12 5 13 8 26 5 28 -2 2
-6 -3 -10 -12z"/>
<path d="M1059 806 c-111 -30 -182 -131 -196 -282 l-6 -61 54 -6 c30 -4 131
-6 224 -5 l170 2 -205 6 c-113 4 -211 8 -219 9 -32 3 13 191 61 250 37 45 85
72 151 82 34 6 63 12 66 15 9 8 -55 2 -100 -10z"/>
<path d="M1263 747 c32 -31 68 -79 82 -109 14 -29 25 -47 25 -40 0 39 -95 168
-144 194 -11 6 6 -14 37 -45z"/>
<path d="M411 764 c0 -11 3 -14 6 -6 3 7 2 16 -1 19 -3 4 -6 -2 -5 -13z"/>
<path d="M1409 729 c63 -115 87 -220 100 -448 7 -116 8 -119 9 -41 2 105 -13
246 -33 325 -17 65 -63 168 -89 200 -9 11 -3 -5 13 -36z"/>
<path d="M1044 741 c-59 -36 -111 -115 -129 -195 -8 -40 5 -46 100 -46 l80 0
-3 130 c-2 71 -6 130 -10 130 -4 0 -21 -9 -38 -19z m6 -78 c0 -5 -9 -21 -20
-38 -22 -33 -27 -21 -8 20 10 23 28 34 28 18z"/>
<path d="M1130 653 c0 -150 2 -153 60 -153 26 0 69 3 95 7 l47 6 -6 45 c-10
77 -76 168 -139 191 -56 22 -57 20 -57 -96z m68 10 c-10 -13 -13 -12 -19 4
-15 36 -10 47 11 28 16 -14 18 -21 8 -32z m41 -21 c0 -10 -3 -12 -5 -5 -3 7
-13 9 -22 6 -15 -6 -15 -5 -3 10 15 19 31 14 30 -11z"/>
<path d="M401 734 c-1 -6 -20 -11 -45 -10 -65 1 -96 -26 -122 -105 -11 -35
-28 -78 -37 -96 -10 -18 -17 -41 -17 -51 0 -25 48 -48 118 -58 28 -3 52 -12
52 -18 0 -7 3 -7 8 -1 4 6 35 17 69 26 l63 16 15 -55 c9 -30 18 -52 20 -50 2
2 -3 28 -12 58 -13 45 -14 55 -2 59 27 8 79 72 79 96 0 16 -10 31 -27 42 -37
22 -146 124 -155 143 -4 8 -7 10 -7 4z m-7 -73 c9 -14 -4 -41 -19 -41 -18 0
-28 17 -21 35 6 17 32 20 40 6z m-124 -75 c-14 -14 -24 0 -16 21 6 15 8 15 16
3 6 -9 5 -19 0 -24z m256 8 c19 -28 9 -48 -22 -42 -20 3 -29 29 -20 54 8 21
24 17 42 -12z m-258 -86 c17 -17 15 -58 -2 -58 -23 0 -48 41 -34 57 13 16 21
16 36 1z m142 -9 c0 -5 -4 -9 -10 -9 -5 0 -10 7 -10 16 0 8 5 12 10 9 6 -3 10
-10 10 -16z"/>
<path d="M806 687 c-40 -97 -59 -221 -65 -434 l-6 -212 25 -5 c14 -3 75 -8
135 -10 l110 -5 -105 9 c-57 5 -115 12 -128 15 l-25 6 6 202 c5 203 24 331 62
430 18 46 11 50 -9 4z"/>
<path d="M1771 654 c0 -11 3 -14 6 -6 3 7 2 16 -1 19 -3 4 -6 -2 -5 -13z"/>
<path d="M1855 604 c-11 -8 -20 -19 -20 -24 0 -21 -17 -21 -35 0 l-20 23 0
-144 c-1 -99 -6 -174 -19 -239 -11 -52 -18 -97 -16 -98 8 -9 29 47 31 83 10
168 18 255 25 255 4 0 21 -18 38 -39 45 -57 119 -76 135 -36 8 21 -6 155 -15
155 -5 0 -9 7 -9 15 0 8 5 15 10 15 15 0 12 16 -6 34 -20 20 -73 20 -99 0z
m25 -109 c0 -8 -5 -17 -11 -21 -16 -9 -30 18 -17 33 12 15 28 8 28 -12z m70
-85 c0 -5 -7 -10 -16 -10 -8 0 -12 5 -9 10 3 6 10 10 16 10 5 0 9 -4 9 -10z"/>
<path d="M1377 528 l6 -57 -34 -4 -34 -4 38 -1 c37 -2 37 -2 36 36 -1 20 -5
48 -9 62 -5 16 -6 4 -3 -32z"/>
<path d="M791 426 c-7 -8 -11 -25 -9 -38 2 -19 9 -23 38 -23 33 0 35 2 35 35
0 30 -4 35 -26 38 -14 2 -31 -4 -38 -12z"/>
<path d="M363 305 c0 -44 2 -61 4 -37 2 23 2 59 0 80 -2 20 -4 1 -4 -43z"/>
<path d="M765 291 c-3 -5 -2 -12 3 -15 5 -3 9 1 9 9 0 17 -3 19 -12 6z"/>
<path d="M540 285 c0 -5 5 -17 10 -25 5 -8 10 -10 10 -5 0 6 -5 17 -10 25 -5
8 -10 11 -10 5z"/>
<path d="M762 240 c0 -14 2 -19 5 -12 2 6 2 18 0 25 -3 6 -5 1 -5 -13z"/>
<path d="M561 235 c0 -5 6 -21 14 -35 8 -14 14 -20 14 -15 0 6 -6 21 -14 35
-8 14 -14 21 -14 15z"/>
<path d="M761 158 c0 -31 4 -60 9 -63 12 -7 12 70 1 100 -6 14 -9 2 -10 -37z"/>
<path d="M351 154 c0 -11 3 -14 6 -6 3 7 2 16 -1 19 -3 4 -6 -2 -5 -13z"/>
<path d="M1515 94 c0 -48 2 -54 20 -53 11 0 14 3 8 6 -8 3 -13 23 -13 48 0 24
-3 46 -7 48 -5 3 -8 -19 -8 -49z"/>
<path d="M601 123 c0 -12 -4 -30 -7 -40 -5 -14 -4 -15 5 -7 7 6 11 24 8 40 -3
21 -4 23 -6 7z"/>
<path d="M478 73 c7 -3 16 -2 19 1 4 3 -2 6 -13 5 -11 0 -14 -3 -6 -6z"/>
<path d="M658 63 c7 -3 16 -2 19 1 4 3 -2 6 -13 5 -11 0 -14 -3 -6 -6z"/>
<path d="M698 53 c7 -3 16 -2 19 1 4 3 -2 6 -13 5 -11 0 -14 -3 -6 -6z"/>
<path d="M1453 33 c9 -2 25 -2 35 0 9 3 1 5 -18 5 -19 0 -27 -2 -17 -5z"/>
<path d="M1343 23 c15 -2 39 -2 55 0 15 2 2 4 -28 4 -30 0 -43 -2 -27 -4z"/>
<path d="M1128 13 c18 -2 45 -2 60 0 15 2 0 4 -33 4 -33 0 -45 -2 -27 -4z"/>
</g>
</svg>
