<?xml version="1.0" standalone="no"?>
<!DOCTYPE svg PUBLIC "-//W3C//DTD SVG 20010904//EN"
 "http://www.w3.org/TR/2001/REC-SVG-20010904/DTD/svg10.dtd">
<svg version="1.0" xmlns="http://www.w3.org/2000/svg"
 width="300.000000pt" height="200.000000pt" viewBox="0 0 300.000000 200.000000"
 preserveAspectRatio="xMidYMid meet">

<g transform="translate(0.000000,200.000000) scale(0.100000,-0.100000)"
fill="#000000" stroke="none">
<path d="M952 1672 c-7 -2 -10 -7 -7 -11 7 -12 -68 -78 -82 -74 -6 2 -21 -5
-33 -17 -20 -20 -20 -23 -6 -45 21 -32 21 -46 0 -17 -11 16 -22 21 -35 17 -11
-4 -19 -2 -19 4 0 6 5 11 11 11 8 0 8 4 0 14 -9 11 -9 15 1 19 10 3 10 7 1 17
-16 17 -44 5 -37 -15 5 -11 -1 -15 -25 -15 -22 0 -29 -4 -25 -14 4 -11 12 -13
30 -6 14 6 24 6 24 0 0 -5 -9 -12 -21 -15 -16 -5 -20 -13 -17 -35 3 -21 1 -26
-12 -23 -9 2 -22 -3 -29 -11 -8 -9 -20 -16 -27 -16 -8 0 -14 -5 -14 -10 0 -6
-8 -5 -20 2 -18 11 -19 20 -14 75 l7 63 -28 0 c-26 0 -27 -1 -20 -37 25 -124
25 -113 -7 -120 -22 -4 -26 -8 -16 -15 9 -7 7 -8 -9 -5 -13 3 -28 -1 -35 -10
-10 -13 -6 -14 38 -9 l49 6 -50 -13 -50 -12 -2 -110 c-4 -155 -5 -158 -53
-153 -29 2 -40 0 -40 -10 0 -7 -5 -10 -11 -6 -8 5 -8 1 0 -14 15 -28 14 -69
-1 -75 -16 -5 -48 3 -48 12 0 4 9 17 21 29 17 19 18 23 4 28 -9 4 -25 -4 -40
-20 -22 -23 -23 -33 -20 -100 3 -50 11 -86 24 -112 22 -40 27 -74 12 -74 -5 0
-11 9 -14 20 -8 31 -27 24 -27 -11 0 -17 -4 -28 -10 -24 -6 3 -10 22 -10 41 0
25 -4 34 -17 34 -27 0 -83 -43 -83 -64 0 -15 3 -16 14 -7 20 17 32 -5 14 -26
-12 -15 -11 -15 7 -6 11 6 20 22 20 35 0 14 6 23 15 23 15 0 15 -4 6 -72 -1
-13 -6 -26 -9 -30 -4 -3 2 -12 13 -20 19 -13 30 -40 11 -29 -4 3 -17 -1 -27
-8 -18 -14 -18 -15 -1 -33 9 -11 17 -27 17 -37 0 -9 5 -14 10 -11 6 3 10 0 11
-7 1 -7 4 -2 8 12 5 18 13 24 29 23 16 -2 26 5 34 22 14 32 43 29 44 -4 2 -45
-27 -127 -57 -159 -36 -39 -82 -43 -125 -10 l-29 22 29 -32 c39 -42 90 -44
137 -5 39 33 60 80 68 153 l6 55 105 12 c118 14 160 10 160 -15 0 -33 48 -120
69 -127 12 -3 19 -10 16 -15 -5 -8 4 -13 55 -24 34 -7 85 24 111 69 11 18 26
32 33 29 7 -3 25 0 41 6 16 6 59 13 96 16 l68 5 -8 -28 c-4 -15 -5 -37 0 -48
4 -11 8 -34 8 -51 1 -40 57 -151 84 -168 34 -21 94 -28 119 -15 52 28 98 105
103 173 2 23 4 47 4 54 1 15 45 16 72 1 16 -8 25 -7 37 4 9 8 40 17 67 20 l50
5 32 -66 c51 -107 135 -146 207 -97 20 14 43 25 51 25 11 0 14 11 13 38 0 21
4 47 10 57 10 19 11 18 20 -5 23 -59 35 -131 22 -143 -9 -9 -14 -8 -24 5 -11
15 -14 15 -36 -2 -21 -16 -22 -22 -14 -51 l10 -34 87 -2 c52 -2 87 2 87 7 0 6
-14 35 -31 65 -61 108 -68 187 -26 270 11 22 28 65 37 95 13 44 20 54 36 52
10 -2 44 -5 74 -5 54 -2 55 -2 58 -35 4 -35 22 -35 22 0 0 21 1 21 28 -4 40
-37 69 -50 117 -50 l43 0 4 -51 c9 -115 3 -306 -9 -319 -16 -15 -17 -72 -3
-99 14 -26 63 -25 106 2 28 17 32 24 24 39 -6 10 -14 21 -19 24 -5 3 -12 32
-16 63 -11 100 50 294 122 391 13 18 28 30 32 27 5 -2 11 -26 15 -52 8 -63 15
-72 48 -66 40 8 49 51 33 150 -21 127 -23 147 -14 170 10 28 37 20 45 -13 4
-13 20 -34 38 -46 17 -12 37 -30 44 -40 7 -10 17 -18 23 -18 5 0 9 92 9 229 0
194 -2 230 -15 235 -8 3 -15 0 -15 -7 0 -8 -4 -7 -10 3 -7 12 -12 12 -29 -4
-12 -11 -21 -29 -21 -40 0 -15 -3 -17 -9 -8 -6 11 -13 7 -30 -14 -11 -14 -21
-33 -21 -40 0 -13 -12 -18 -36 -15 -15 2 -76 -74 -67 -83 9 -8 -19 -7 -33 2
-18 12 -34 49 -34 81 0 27 4 31 54 45 30 9 63 16 74 16 26 0 52 10 52 19 0 4
-18 8 -41 9 -48 2 -149 -25 -149 -39 0 -6 -4 -7 -10 -4 -6 4 -10 -9 -10 -31 0
-23 -6 -41 -17 -49 -13 -10 -14 -16 -7 -26 6 -8 12 -30 12 -50 2 -54 12 -101
24 -116 15 -18 1 -30 -19 -17 -25 16 -34 59 -34 164 0 85 -1 93 -14 76 -8 -11
-17 -36 -21 -55 -8 -51 -34 -131 -42 -131 -4 1 -29 20 -56 44 -44 39 -47 44
-35 64 20 31 7 35 -44 13 -48 -21 -77 -61 -91 -126 -4 -16 -13 -38 -21 -48
-16 -22 -127 -48 -149 -35 -8 5 -17 4 -21 -2 -12 -20 -25 -10 -25 20 0 17 -4
30 -8 30 -5 0 -8 23 -6 52 1 42 6 53 25 64 l24 12 -27 7 c-15 4 -32 4 -37 0
-17 -10 -13 11 7 34 l17 22 55 -25 c64 -28 140 -43 140 -27 0 6 -10 11 -23 11
-13 0 -51 9 -85 21 l-62 21 6 50 c6 41 4 50 -7 46 -7 -2 -17 -20 -22 -39 -5
-21 -17 -39 -30 -44 -15 -7 -29 -33 -49 -90 -27 -80 -67 -150 -55 -95 l6 25
-19 -23 c-22 -27 -16 -56 11 -49 23 6 26 -18 3 -27 -24 -9 -31 -7 -14 5 12 9
11 10 -8 6 -12 -3 -20 -1 -16 4 3 5 0 9 -6 9 -8 0 -10 14 -7 43 8 73 13 81 50
106 46 30 38 45 -20 36 -50 -7 -73 5 -73 39 0 14 -18 35 -50 61 l-49 39 -84
-3 c-96 -3 -104 2 -110 69 l-4 45 -1 -48 c-1 -34 -6 -47 -14 -45 -17 6 -25 48
-27 134 -1 72 -8 84 -46 88 -19 2 -94 49 -99 63 -3 8 -2 12 3 9 13 -8 20 16
14 47 -8 39 -45 38 -43 0 3 -44 1 -48 -14 -27 -9 11 -12 29 -9 43 5 22 4 23
-37 17 -24 -3 -52 -13 -62 -23 -15 -13 -23 -14 -41 -5 -12 6 -33 13 -47 16
-14 3 -7 3 15 2 42 -3 95 10 95 24 0 16 -28 32 -35 20 -9 -14 -51 -5 -115 26
-56 27 -71 30 -65 12 3 -7 -11 -21 -31 -30 -39 -20 -58 -23 -49 -8 3 6 15 10
25 10 25 0 45 35 28 46 -15 9 -39 12 -56 6z m-25 -84 c-3 -8 -6 -5 -6 6 -1 11
2 17 5 13 3 -3 4 -12 1 -19z m129 -33 c-4 -19 2 -29 20 -41 24 -16 32 -34 16
-34 -16 0 -52 37 -52 54 0 12 -6 15 -25 10 -33 -8 -32 2 3 20 38 21 43 20 38
-9z m-106 1 c0 -3 -4 -8 -10 -11 -5 -3 -10 -1 -10 4 0 6 5 11 10 11 6 0 10 -2
10 -4z m-30 -27 c0 -5 -4 -9 -10 -9 -5 0 -10 7 -10 16 0 8 5 12 10 9 6 -3 10
-10 10 -16z m-32 -7 c2 -7 -6 -12 -20 -11 -19 1 -20 2 -4 6 15 4 16 7 5 15
-12 8 -12 9 0 6 8 -3 17 -10 19 -16z m142 -16 c0 -3 -4 -8 -10 -11 -5 -3 -10
-1 -10 4 0 6 5 11 10 11 6 0 10 -2 10 -4z m213 -16 c3 -11 1 -23 -4 -26 -5 -3
-9 6 -9 20 0 31 6 34 13 6z m-259 -34 c-11 -14 -23 -26 -28 -26 -6 0 -5 5 1
11 6 6 9 19 6 28 -4 14 -3 14 6 1 9 -12 11 -11 11 10 0 17 3 21 11 13 8 -8 6
-18 -7 -37z m-160 -22 c26 -9 45 -18 43 -20 -2 -3 -17 1 -33 7 -16 6 -51 15
-79 19 -44 7 -45 8 -14 9 19 0 57 -6 83 -15z m-127 0 c-3 -3 -12 -4 -19 -1 -8
3 -5 6 6 6 11 1 17 -2 13 -5z m326 -21 c-13 -2 -33 -2 -45 0 -13 2 -3 4 22 4
25 0 35 -2 23 -4z m197 -73 c11 -7 7 -10 -18 -10 -20 0 -31 4 -27 10 8 13 26
13 45 0z m250 -55 c0 -9 -9 -15 -25 -15 -14 0 -25 4 -25 9 0 5 10 7 23 4 18
-4 19 -3 7 6 -13 9 -13 11 3 11 9 0 17 -7 17 -15z m-900 -22 c0 -10 -6 -13
-16 -9 -9 3 -20 6 -25 6 -21 0 -7 15 16 16 16 1 25 -3 25 -13z m37 -5 c-3 -8
-6 -5 -6 6 -1 11 2 17 5 13 3 -3 4 -12 1 -19z m-70 -80 c-3 -8 -6 -5 -6 6 -1
11 2 17 5 13 3 -3 4 -12 1 -19z m912 -3 c26 -13 37 -32 46 -75 2 -9 -2 -7 -8
4 -21 34 -60 67 -74 61 -8 -2 -11 -1 -8 4 3 5 -7 12 -22 14 -26 4 -26 4 5 6
18 0 46 -6 61 -14z m1322 -166 c-5 -13 -10 -19 -11 -14 0 6 -5 3 -10 -5 -8
-12 -10 -13 -10 -1 0 15 30 54 37 48 2 -2 -1 -15 -6 -28z m76 -31 c-3 -7 -5
-2 -5 12 0 14 2 19 5 13 2 -7 2 -19 0 -25z m-2254 15 c-7 -2 -21 -2 -30 0 -10
3 -4 5 12 5 17 0 24 -2 18 -5z m1857 -18 c7 -8 8 -15 2 -15 -5 0 -15 7 -22 15
-7 8 -8 15 -2 15 5 0 15 -7 22 -15z m-2 -28 c24 -25 18 -42 -15 -44 -26 -2
-46 27 -37 51 9 22 27 20 52 -7z m145 -29 c5 -35 4 -37 -14 -25 -20 13 -22 20
-13 55 8 30 20 17 27 -30z m-2007 4 c-21 -2 -42 0 -47 5 -4 4 13 6 39 3 l47
-5 -39 -3z m1918 -18 c3 -9 6 -18 6 -20 0 -9 -85 -44 -105 -43 -11 0 -2 6 20
14 22 8 41 15 41 15 1 0 5 11 8 25 7 28 21 33 30 9z m-164 -84 c-20 -13 -33
-13 -25 0 3 6 14 10 23 10 15 0 15 -2 2 -10z m-62 -16 c-9 -8 -160 -46 -165
-41 -2 3 29 14 69 25 75 21 106 26 96 16z m-180 -50 c-9 -8 -360 -105 -365
-101 -2 3 47 19 109 36 62 18 140 41 173 51 63 19 92 24 83 14z m-1778 -44 c0
-5 -2 -10 -4 -10 -3 0 -8 5 -11 10 -3 6 -1 10 4 10 6 0 11 -4 11 -10z m36 -30
c8 0 14 -7 14 -16 0 -13 -6 -15 -32 -9 -18 4 -39 7 -45 8 -7 0 -13 4 -13 8 0
10 31 18 48 13 8 -2 20 -4 28 -4z m84 -31 c0 -6 9 -8 20 -4 23 7 60 -2 60 -16
0 -10 -79 -12 -104 -3 -23 9 -20 34 4 34 11 0 20 -5 20 -11z m1277 -5 c-3 -3
-12 -4 -19 -1 -8 3 -5 6 6 6 11 1 17 -2 13 -5z m-17 -54 c0 -11 -7 -23 -16
-27 -15 -6 -15 -8 2 -20 16 -12 17 -15 4 -23 -8 -5 -36 -10 -63 -10 l-47 0 2
37 c4 41 18 51 41 28 18 -17 31 -20 22 -5 -9 15 14 40 36 40 12 0 19 -7 19
-20z m-951 -5 c16 -8 48 -16 72 -18 67 -6 79 -14 75 -50 -5 -44 -54 -75 -72
-46 -4 8 -9 8 -17 0 -16 -16 -47 -14 -53 3 -3 8 2 28 11 45 8 17 13 31 10 31
-2 0 -13 -17 -23 -37 -19 -35 -20 -36 -27 -14 -5 16 -3 26 6 32 10 6 6 11 -14
18 -17 7 -27 18 -27 31 0 24 20 26 59 5z m1091 -2 c0 -7 -4 -13 -10 -13 -5 0
-10 -7 -10 -15 0 -12 -11 -15 -45 -13 -39 1 -45 4 -45 23 0 30 3 32 60 31 33
-1 50 -5 50 -13z m-295 -1 c6 -4 10 -24 11 -44 l0 -37 -45 3 c-40 2 -46 5 -53
31 -9 34 -3 41 32 48 41 7 45 7 55 -1z m-120 -52 c-4 -13 -15 -20 -30 -20 -13
0 -32 -3 -42 -6 -15 -5 -15 -4 -3 5 13 9 12 12 -5 25 -25 18 -16 27 32 36 42
7 59 -7 48 -40z m-148 10 c3 -11 12 -20 19 -20 23 0 16 -26 -11 -40 -26 -14
-33 -34 -15 -45 7 -4 7 -12 0 -25 -13 -23 -13 -33 -1 -25 6 3 14 -3 20 -12 6
-11 11 -13 11 -5 0 9 7 11 20 7 17 -6 20 -2 20 29 0 19 5 38 10 41 6 4 8 11 5
16 -4 5 10 9 29 9 47 0 62 -26 45 -78 -16 -54 -33 -85 -43 -83 -5 1 -14 -8
-20 -21 -25 -51 -126 -28 -157 35 -7 15 -4 14 11 -6 12 -15 30 -32 41 -38 16
-8 19 -6 19 11 0 11 -7 20 -15 20 -9 0 -18 8 -22 18 -3 9 -15 27 -27 40 -26
29 -37 169 -15 183 27 17 71 10 76 -11z m541 -50 c4 -9 53 0 70 13 17 14 32
-8 30 -43 0 -14 5 -38 11 -54 10 -24 9 -32 -5 -47 -25 -28 -110 -21 -136 11
-10 13 -17 29 -14 37 3 7 1 13 -4 13 -10 0 -40 52 -40 69 0 19 80 20 88 1z"/>
<path d="M801 510 c0 -15 3 -19 6 -10 4 8 13 20 20 25 12 9 10 11 -6 11 -16 0
-21 -6 -20 -26z"/>
<path d="M840 495 c0 -8 4 -15 9 -15 5 0 11 7 15 15 3 9 0 15 -9 15 -8 0 -15
-7 -15 -15z"/>
<path d="M1220 500 c0 -5 5 -10 11 -10 5 0 7 5 4 10 -3 6 -8 10 -11 10 -2 0
-4 -4 -4 -10z"/>
<path d="M1320 296 c0 -9 5 -16 10 -16 6 0 10 4 10 9 0 6 -4 13 -10 16 -5 3
-10 -1 -10 -9z"/>
<path d="M552 1627 c-26 -28 -17 -42 27 -42 41 0 51 19 23 46 -26 24 -24 24
-50 -4z"/>
<path d="M1647 1443 c-16 -4 -18 -12 -13 -49 3 -24 1 -44 -3 -44 -5 0 -12 -7
-15 -16 -3 -8 -2 -13 3 -10 11 7 72 -15 93 -34 9 -8 19 -27 23 -42 7 -27 25
-39 25 -17 0 6 6 9 13 6 7 -2 11 -15 9 -30 -2 -16 1 -27 8 -27 12 0 10 23 -6
108 -6 31 -5 32 25 32 21 0 31 5 31 16 0 21 -55 100 -75 108 -19 7 -90 6 -118
-1z"/>
<path d="M1902 1383 c-5 -10 -13 -34 -16 -53 -5 -30 -3 -27 14 14 19 49 21 75
2 39z"/>
<path d="M1606 1294 c-9 -23 -3 -26 28 -18 14 3 26 12 26 20 0 20 -46 18 -54
-2z"/>
<path d="M1866 1275 c-9 -26 -7 -32 5 -12 6 10 9 21 6 23 -2 3 -7 -2 -11 -11z"/>
<path d="M2955 1280 c-3 -5 -3 -15 0 -20 7 -12 45 5 45 20 0 13 -37 13 -45 0z"/>
<path d="M380 1269 c0 -6 -5 -7 -11 -3 -7 4 -10 1 -7 -7 6 -20 48 -24 48 -6 0
8 -7 17 -15 21 -8 3 -15 1 -15 -5z"/>
<path d="M383 1135 c-8 -22 6 -33 17 -15 13 20 12 30 0 30 -6 0 -13 -7 -17
-15z"/>
<path d="M136 711 c-22 -35 -9 -261 14 -246 4 3 7 -3 6 -12 -2 -27 21 -26 26
1 3 14 1 23 -3 20 -24 -15 -50 141 -31 194 10 30 1 64 -12 43z"/>
</g>
</svg>
