<?xml version="1.0" standalone="no"?>
<!DOCTYPE svg PUBLIC "-//W3C//DTD SVG 20010904//EN"
 "http://www.w3.org/TR/2001/REC-SVG-20010904/DTD/svg10.dtd">
<svg version="1.0" xmlns="http://www.w3.org/2000/svg"
 width="300.000000pt" height="169.000000pt" viewBox="0 0 300.000000 169.000000"
 preserveAspectRatio="xMidYMid meet">

<g transform="translate(0.000000,169.000000) scale(0.100000,-0.100000)"
fill="#000000" stroke="none">
<path d="M201 1583 c-17 -21 -31 -42 -31 -48 0 -17 44 -55 145 -125 50 -34 94
-66 98 -70 4 -4 -12 -33 -36 -66 -56 -77 -69 -112 -20 -54 91 107 77 97 115
77 18 -10 44 -27 58 -37 l25 -20 -22 -6 c-30 -8 -29 -28 4 -54 31 -24 47 -22
51 8 2 12 6 22 10 21 16 -1 137 -98 135 -107 -2 -6 5 -10 15 -9 10 0 116 -68
237 -153 121 -84 270 -188 330 -230 61 -42 148 -101 195 -131 47 -30 254 -172
460 -316 l375 -262 94 -1 c93 0 93 0 70 18 -35 27 -430 309 -529 377 -47 32
-87 61 -90 65 -13 17 -100 70 -100 60 0 -5 5 -10 10 -10 6 0 10 -7 10 -15 0
-13 -4 -12 -22 4 -29 28 -45 14 -17 -15 24 -26 15 -32 -14 -9 -11 7 -25 11
-32 9 -7 -3 -16 0 -21 7 -4 8 -3 10 4 5 7 -4 14 3 18 19 3 13 10 22 15 19 5
-3 9 2 9 10 0 15 -50 56 -69 56 -6 0 -11 4 -11 9 0 5 -31 32 -69 61 -39 28
-98 82 -131 121 -34 38 -66 69 -70 69 -5 0 -11 -14 -15 -30 -4 -16 -13 -30
-20 -30 -21 0 -26 15 -16 43 8 21 5 29 -18 51 -15 14 -33 26 -39 26 -12 0 -51
19 -62 30 -3 3 -22 14 -42 25 -25 13 -33 22 -25 27 9 6 9 10 -1 20 -9 9 -12 9
-12 -1 0 -10 -3 -11 -13 -2 -8 6 -16 9 -18 6 -3 -2 -10 5 -17 15 -10 17 -9 18
6 13 9 -3 2 7 -15 23 l-33 29 30 35 c82 94 90 112 24 48 -38 -38 -73 -68 -78
-68 -5 0 -15 -8 -22 -17 -12 -17 -13 -17 -8 2 4 15 -3 25 -25 38 -30 17 -30
17 -26 -6 4 -18 0 -23 -18 -24 -24 -2 -67 22 -67 37 0 6 7 10 16 10 8 0 13 -4
10 -9 -3 -5 5 -8 18 -8 15 0 23 5 22 14 -3 15 -51 44 -60 35 -5 -5 -10 12 -8
29 1 3 -10 12 -24 20 -14 7 -44 32 -67 55 -23 22 -51 46 -61 51 -19 10 -19 12
-3 37 10 14 15 26 12 26 -4 0 7 12 22 26 15 15 19 21 8 13 -11 -7 -34 -26 -52
-43 l-32 -29 -41 28 c-54 37 -55 40 -30 76 12 16 19 33 15 37 -4 4 -16 -5 -27
-21 -26 -35 -41 -34 -98 8 -27 20 -60 35 -75 35 -14 0 -57 18 -94 40 -37 22
-72 40 -78 40 -7 0 -25 -17 -42 -37z m653 -419 c10 -25 -1 -29 -14 -5 -6 12
-7 21 -1 21 5 0 12 -7 15 -16z m211 -104 c3 -5 2 -10 -4 -10 -5 0 -13 5 -16
10 -3 6 -2 10 4 10 5 0 13 -4 16 -10z m481 -387 c-4 -4 -16 3 -26 17 -29 37
-24 49 7 18 15 -15 23 -31 19 -35z m-21 -33 c3 -5 1 -10 -4 -10 -6 0 -11 5
-11 10 0 6 2 10 4 10 3 0 8 -4 11 -10z m135 -39 c2 -1 -1 -6 -8 -13 -9 -9 -7
-17 10 -35 12 -13 17 -23 12 -23 -6 0 -23 14 -39 30 -16 17 -23 30 -16 30 7 0
10 4 7 9 -4 5 2 8 11 6 10 -2 20 -4 23 -4z m45 -41 c3 -5 -3 -10 -14 -10 -12
0 -21 5 -21 10 0 6 6 10 14 10 8 0 18 -4 21 -10z m420 -339 c-3 -6 -11 -11
-16 -11 -5 0 -4 6 3 14 14 16 24 13 13 -3z"/>
<path d="M779 1483 c-13 -16 -12 -17 4 -4 9 7 17 15 17 17 0 8 -8 3 -21 -13z"/>
<path d="M834 1278 c-7 -11 29 -48 47 -48 19 0 21 31 3 45 -23 18 -41 19 -50
3z"/>
<path d="M710 1065 c-7 -9 -8 -15 -2 -15 5 0 12 7 16 15 3 8 4 15 2 15 -2 0
-9 -7 -16 -15z"/>
<path d="M1187 989 c7 -7 15 -10 18 -7 3 3 -2 9 -12 12 -14 6 -15 5 -6 -5z"/>
</g>
</svg>
