<?xml version="1.0" standalone="no"?>
<!DOCTYPE svg PUBLIC "-//W3C//DTD SVG 20010904//EN"
 "http://www.w3.org/TR/2001/REC-SVG-20010904/DTD/svg10.dtd">
<svg version="1.0" xmlns="http://www.w3.org/2000/svg"
 width="241.000000pt" height="300.000000pt" viewBox="0 0 241.000000 300.000000"
 preserveAspectRatio="xMidYMid meet">

<g transform="translate(0.000000,300.000000) scale(0.100000,-0.100000)"
fill="#000000" stroke="none">
<path d="M1817 2855 c-21 -8 -65 -31 -97 -50 -41 -25 -75 -37 -112 -41 -114
-10 -217 -28 -212 -36 3 -4 -2 -8 -10 -8 -8 0 -16 -6 -19 -12 -2 -7 -3 -5 -1
6 2 14 -2 17 -19 13 -12 -4 -46 -11 -74 -18 -29 -6 -50 -16 -47 -21 4 -5 17
-7 30 -4 14 4 24 2 24 -4 0 -5 -6 -10 -14 -10 -8 0 -16 -6 -19 -14 -4 -11 -1
-11 19 -2 13 6 24 16 24 22 0 13 57 16 65 3 4 -5 -8 -9 -24 -9 -19 0 -31 -5
-31 -13 0 -7 -16 -19 -35 -26 -19 -7 -35 -16 -35 -21 0 -4 -13 -3 -30 3 -16 6
-30 17 -30 25 0 7 -5 10 -12 6 -7 -4 -8 -3 -4 4 4 6 13 9 21 6 7 -3 22 -1 32
5 16 9 15 10 -7 11 -20 0 -22 2 -10 10 19 12 5 13 -18 1 -9 -6 -34 -13 -54
-16 -23 -4 -38 -11 -38 -20 0 -8 -5 -17 -12 -21 -7 -4 -8 -3 -4 4 5 8 0 12
-13 12 -26 0 -27 -11 -3 -26 20 -13 33 -16 30 -8 -2 4 7 11 20 15 13 5 21 13
17 19 -3 6 0 7 9 4 9 -3 14 -10 11 -14 -3 -4 10 -11 29 -14 55 -10 52 -32 -5
-43 -27 -6 -49 -6 -49 -2 0 5 6 9 14 9 8 0 16 6 19 14 4 11 -1 11 -31 0 -23
-8 -41 -9 -48 -3 -8 7 -14 -4 -18 -36 -7 -46 -20 -64 -32 -44 -3 6 -1 15 6 19
7 4 10 13 6 18 -4 6 -1 20 5 31 10 15 9 22 -4 36 -14 14 -17 14 -17 2 0 -9 6
-18 13 -20 8 -4 7 -6 -3 -6 -9 -1 -21 4 -26 9 -11 11 -45 1 -93 -29 -22 -14
-22 -15 -5 -23 13 -5 9 -7 -16 -5 -24 1 -34 -2 -33 -10 2 -7 -4 -13 -12 -13
-8 0 -15 -4 -15 -9 0 -5 9 -7 20 -4 11 3 20 9 20 14 0 16 48 10 54 -7 4 -12 1
-14 -14 -9 -11 4 -20 2 -20 -3 0 -6 11 -13 25 -16 22 -6 38 -28 18 -25 -21 3
-31 -3 -36 -21 -3 -14 -14 -20 -32 -20 -14 0 -24 4 -21 8 3 5 -1 9 -8 9 -8 0
-11 -8 -9 -18 3 -10 11 -15 19 -12 8 3 14 0 14 -6 0 -6 -4 -11 -9 -11 -5 0
-22 -10 -38 -23 -33 -27 -83 -34 -83 -12 0 8 5 15 11 15 5 0 7 -5 3 -12 -4 -7
-3 -8 4 -4 25 15 13 36 -20 34 -19 -2 -33 2 -36 10 -3 11 7 12 49 8 56 -6 87
4 74 23 -5 9 -10 9 -21 0 -15 -12 -44 -6 -44 11 0 5 15 10 33 10 30 0 32 2 32
34 0 19 -4 38 -8 42 -5 5 -5 0 -1 -10 5 -13 4 -17 -4 -12 -13 8 -72 -20 -72
-34 0 -6 -7 -10 -15 -10 -8 0 -15 -4 -15 -9 0 -5 -12 -12 -27 -16 -24 -6 -26
-8 -12 -18 18 -14 14 -37 -7 -37 -8 0 -14 -4 -14 -10 0 -5 6 -7 14 -4 10 4 14
-1 13 -14 0 -12 -4 -19 -7 -17 -3 2 -12 0 -20 -6 -13 -7 -12 -9 2 -9 11 0 15
-5 12 -15 -5 -11 -10 -12 -23 -3 -19 12 -23 58 -7 70 20 13 -2 18 -30 7 -16
-6 -23 -13 -16 -16 17 -7 15 -33 -4 -33 -8 0 -12 -5 -9 -10 4 -6 11 -8 16 -5
5 4 16 -1 25 -10 15 -14 13 -16 -22 -14 -22 1 -45 7 -51 12 -9 6 -13 6 -13 -1
0 -6 -8 -11 -17 -11 -39 1 -59 -9 -71 -33 -14 -30 -7 -59 14 -51 8 3 11 10 7
17 -4 6 2 4 12 -4 14 -11 19 -12 22 -2 3 6 9 12 15 12 6 0 6 -6 -2 -15 -7 -8
-18 -15 -25 -15 -7 0 -13 -12 -13 -26 0 -15 4 -21 8 -14 7 11 28 18 61 19 9 1
19 8 22 15 4 11 1 13 -10 9 -10 -4 -14 -2 -10 4 4 6 16 13 27 16 17 4 19 2 14
-20 -6 -23 -5 -25 17 -18 21 7 20 5 -8 -24 -17 -17 -42 -31 -55 -31 -13 0 -18
-3 -12 -8 7 -4 1 -15 -18 -30 -15 -13 -28 -19 -28 -13 0 6 -5 11 -11 11 -6 0
-8 -7 -5 -17 4 -10 4 -14 0 -10 -4 4 -12 -1 -18 -12 -6 -10 -18 -29 -27 -42
-17 -24 -22 -69 -35 -319 -3 -63 -11 -130 -16 -149 -6 -19 -12 -69 -14 -110
-2 -42 -7 -94 -10 -116 -11 -82 -22 -221 -19 -253 2 -17 -1 -34 -5 -37 -12 -7
-18 -64 -25 -210 -7 -153 -24 -345 -31 -357 -4 -6 4 -4 17 2 24 13 24 13 5 -9
-18 -19 -15 -26 8 -22 5 1 1 -10 -8 -24 -17 -26 -17 -26 21 -42 53 -22 165
-32 249 -21 47 6 85 6 108 -1 28 -7 50 -6 89 5 29 8 133 18 232 24 283 15 513
41 640 72 77 19 197 72 241 106 205 160 306 254 370 347 58 85 63 184 23 470
-5 39 -16 150 -23 247 -13 158 -17 181 -40 221 -15 24 -37 76 -50 114 -13 39
-30 81 -37 94 -7 13 -12 39 -10 57 1 19 -2 31 -7 28 -5 -3 -7 7 -4 23 2 15 -6
108 -17 207 -11 98 -26 240 -32 314 -6 76 -16 144 -24 156 -8 12 -33 25 -65
32 -62 14 -65 14 -113 -3z m-827 -299 c0 -6 5 -4 11 4 9 12 10 12 5 -3 -16
-51 -18 -67 -5 -67 15 0 4 -13 -14 -16 -7 -1 -20 -5 -29 -9 -26 -11 -37 43
-13 62 15 10 20 10 27 0 6 -9 8 -8 8 4 0 26 -12 30 -37 14 -26 -18 -30 -10 -7
16 16 18 54 15 54 -5z m965 -35 c3 -23 0 -31 -12 -31 -10 0 -13 6 -9 16 4 12
2 15 -9 11 -8 -4 -17 -1 -21 5 -5 7 -2 8 6 3 10 -6 12 -4 7 9 -4 9 -3 14 2 11
5 -3 13 0 16 6 10 15 16 6 20 -30z m-32 -86 c2 -43 17 -47 17 -5 0 17 4 30 9
30 16 0 23 -38 12 -74 -8 -29 -6 -36 7 -40 11 -4 17 -17 17 -35 0 -34 -20 -58
-29 -35 -3 8 -2 13 2 10 5 -3 9 8 9 24 0 21 -4 27 -18 25 -19 -4 -34 31 -15
38 7 3 4 10 -8 19 -12 9 -20 31 -23 64 -3 39 -2 45 7 31 6 -10 12 -33 13 -52z
m-1143 39 c0 -8 -5 -12 -10 -9 -6 4 -8 11 -5 16 9 14 15 11 15 -7z m-63 -46
c-3 -8 -6 -5 -6 6 -1 11 2 17 5 13 3 -3 4 -12 1 -19z m-14 -72 c4 -10 0 -14
-14 -13 -20 1 -24 9 -12 20 10 11 20 8 26 -7z m25 -51 c-23 -23 -68 -23 -68 0
0 15 22 23 62 22 l26 -1 -20 -21z m-138 -43 c0 -13 2 -13 18 1 10 10 33 17 52
17 28 0 31 -2 20 -15 -13 -16 -35 -21 -26 -6 4 5 -5 4 -19 -2 -19 -9 -21 -13
-9 -17 14 -5 14 -7 0 -19 -14 -12 -19 -11 -36 4 -11 10 -20 24 -20 32 0 8 -4
11 -10 8 -5 -3 -10 0 -10 8 0 10 7 13 20 10 11 -3 20 -12 20 -21z m-60 8 c0
-5 -7 -7 -15 -4 -8 4 -15 8 -15 10 0 2 7 4 15 4 8 0 15 -4 15 -10z m1471 -35
c5 4 8 -5 7 -19 -2 -25 -18 -26 -18 0 0 8 -4 14 -10 14 -5 0 -6 8 -2 18 6 16
7 16 10 -1 2 -9 8 -15 13 -12z m49 -101 c0 -3 -7 -1 -15 6 -8 7 -15 17 -15 22
0 5 7 3 15 -6 8 -8 15 -18 15 -22z m-465 -1174 c3 -5 1 -10 -4 -10 -6 0 -10
-6 -8 -12 1 -7 -4 -12 -12 -10 -7 1 -19 -5 -25 -13 -11 -15 -13 -14 -23 8 -10
21 -9 26 4 31 11 4 14 2 9 -9 -8 -22 12 -18 24 5 12 22 25 26 35 10z"/>
<path d="M971 2494 c0 -11 3 -14 6 -6 3 7 2 16 -1 19 -3 4 -6 -2 -5 -13z"/>
<path d="M843 2483 c-4 -10 -11 -22 -17 -26 -7 -5 -3 -7 9 -5 13 2 20 11 21
26 1 26 -4 29 -13 5z"/>
<path d="M815 2480 c-3 -5 -1 -10 4 -10 6 0 11 5 11 10 0 6 -2 10 -4 10 -3 0
-8 -4 -11 -10z"/>
<path d="M525 2320 c3 -5 8 -10 11 -10 2 0 4 5 4 10 0 6 -5 10 -11 10 -5 0 -7
-4 -4 -10z"/>
<path d="M496 2155 c-3 -8 -1 -15 3 -15 5 0 11 7 15 15 3 8 1 15 -3 15 -5 0
-11 -7 -15 -15z"/>
<path d="M451 2123 c-1 -24 14 -39 24 -23 3 5 2 10 -4 10 -5 0 -12 8 -14 18
-4 13 -5 12 -6 -5z"/>
</g>
</svg>
